<?xml version="1.0" encoding="UTF-8" standalone="no"?>
<!-- Created with Inkscape (http://www.inkscape.org/) -->

<svg
   xmlns:dc="http://purl.org/dc/elements/1.1/"
   xmlns:cc="http://creativecommons.org/ns#"
   xmlns:rdf="http://www.w3.org/1999/02/22-rdf-syntax-ns#"
   xmlns:svg="http://www.w3.org/2000/svg"
   xmlns="http://www.w3.org/2000/svg"
   xmlns:sodipodi="http://sodipodi.sourceforge.net/DTD/sodipodi-0.dtd"
   xmlns:inkscape="http://www.inkscape.org/namespaces/inkscape"
   width="744.09448819"
   height="1052.3622047"
   id="svg2"
   version="1.1"
   inkscape:version="0.48.2 r9819"
   sodipodi:docname="tree.svg">
  <defs
     id="defs4" />
  <sodipodi:namedview
     id="base"
     pagecolor="#ffffff"
     bordercolor="#666666"
     borderopacity="1.0"
     inkscape:pageopacity="0.0"
     inkscape:pageshadow="2"
     inkscape:zoom="0.24748737"
     inkscape:cx="115.71429"
     inkscape:cy="703.64092"
     inkscape:document-units="px"
     inkscape:current-layer="layer1"
     showgrid="false"
     inkscape:window-width="1920"
     inkscape:window-height="1005"
     inkscape:window-x="-9"
     inkscape:window-y="-9"
     inkscape:window-maximized="1" />
  <metadata
     id="metadata7">
    <rdf:RDF>
      <cc:Work
         rdf:about="">
        <dc:format>image/svg+xml</dc:format>
        <dc:type
           rdf:resource="http://purl.org/dc/dcmitype/StillImage" />
        <dc:title></dc:title>
      </cc:Work>
    </rdf:RDF>
  </metadata>
  <g
     inkscape:label="Layer 1"
     inkscape:groupmode="layer"
     id="layer1">
    <path
       style="fill:#8b481a;fill-opacity:1;stroke:#000000;stroke-width:0.96837801px;stroke-linecap:butt;stroke-linejoin:miter;stroke-opacity:1"
       d="M 210.83238,105.66749 C 218.10135,169.08509 232.16567,319.85646 235.22744,430.68885 238.57292,551.7907 241.65456,658.43353 237.42869,721.92703 225.55741,795.82885 166.69823,839.74771 110.57998,877.35242 96.789521,890.41834 57.476379,910.70588 61.043626,920.31078 97.580141,922.10359 130.81592,901.4561 163.69471,887.26395 185.14488,880.25378 214.20043,851.07314 226.59546,850.09378 226.69115,902.07614 187.47656,938.75517 160.46634,977.1343 143.30444,1014.3508 185.23055,976.62254 196.26963,968.97854 232.97392,940.29333 264.83508,903.74617 285.92505,860.52722 312.07447,856.91226 301.57468,904.11546 316.73938,919.89735 329.3794,950.95874 350.47128,978.83223 378.48033,995.38074 357.92108,945.82776 352.14237,891.32926 349.15805,837.76225 381.70411,857.65214 409.30339,885.59182 443.11313,903.39132 474.62587,923.35195 507.23367,941.4123 540.99982,956.6479 505.3252,874.00705 410.71231,843.21168 378.23507,758.07532 361.485,708.52391 358.25879,657.63125 352.56471,606.02835 349.95231,559.52023 347.30313,436.89106 343.79534,337.10238 340.28754,237.31369 355.3939,136.91662 355.06132,90.341871 309.06662,94.627591 256.82708,101.38177 210.83238,105.66749 z"
       id="path2991"
       inkscape:connector-curvature="0"
       sodipodi:nodetypes="cscccccccccccccccscc" />
    <path
       style="fill:#008000;fill-opacity:1;stroke:#000000;stroke-width:0;stroke-miterlimit:4;stroke-opacity:1;stroke-dasharray:none"
       d="M 320.35056,-333.71674 C 284.79564,-333.67967 248.82089,-323.42337 217.82303,-300.71492 159.55833,-310.05192 94.27995,-299.5119 48.338607,-249.01712 26.093035,-228.4592 21.599721,-188.2058 24.00038,-159.7854 -8.6181543,-137.105 -29.362274,-81.958846 -9.5735753,-37.867795 -4.6907343,-9.9505361 29.077298,-1.6521315 29.925934,20.919775 24.818624,68.401611 60.919948,101.0776 91.833446,115.10748 122.23921,129.37838 155.24821,133.39073 187.39073,129.57913 237.44771,162.00506 296.97255,163.35863 351.06722,149.55908 373.21802,145.73122 392.26662,128.33649 411.87725,118.74209 458.11971,111.71861 509.51054,81.0137 524.02456,19.995887 526.2451,-9.2315511 523.95303,-33.298192 542.15487,-55.255595 567.47924,-110.37016 551.11988,-183.77293 512.37853,-221.21137 487.79161,-245.16143 458.75793,-255.9782 438.83768,-287.28009 404.99167,-319.50801 362.14627,-333.64581 320.35056,-333.71674 z"
       id="path3773"
       inkscape:connector-curvature="0" />
  </g>
</svg>
