<?xml version="1.0" encoding="UTF-8" standalone="no"?>
<!-- Created with Inkscape (http://www.inkscape.org/) -->

<svg
   xmlns:dc="http://purl.org/dc/elements/1.1/"
   xmlns:cc="http://creativecommons.org/ns#"
   xmlns:rdf="http://www.w3.org/1999/02/22-rdf-syntax-ns#"
   xmlns:svg="http://www.w3.org/2000/svg"
   xmlns="http://www.w3.org/2000/svg"
   xmlns:sodipodi="http://sodipodi.sourceforge.net/DTD/sodipodi-0.dtd"
   xmlns:inkscape="http://www.inkscape.org/namespaces/inkscape"
   width="744.09448819"
   height="1052.3622047"
   id="svg2"
   version="1.1"
   inkscape:version="0.48.2 r9819"
   sodipodi:docname="tree.svg">
  <defs
     id="defs4" />
  <sodipodi:namedview
     id="base"
     pagecolor="#ffffff"
     bordercolor="#666666"
     borderopacity="1.0"
     inkscape:pageopacity="0.0"
     inkscape:pageshadow="2"
     inkscape:zoom="0.24748737"
     inkscape:cx="115.71429"
     inkscape:cy="703.64092"
     inkscape:document-units="px"
     inkscape:current-layer="layer1"
     showgrid="false"
     inkscape:window-width="1920"
     inkscape:window-height="1005"
     inkscape:window-x="-9"
     inkscape:window-y="-9"
     inkscape:window-maximized="1" />
  <metadata
     id="metadata7">
    <rdf:RDF>
      <cc:Work
         rdf:about="">
        <dc:format>image/svg+xml</dc:format>
        <dc:type
           rdf:resource="http://purl.org/dc/dcmitype/StillImage" />
        <dc:title></dc:title>
      </cc:Work>
    </rdf:RDF>
  </metadata>
  <g
     inkscape:label="Layer 1"
     inkscape:groupmode="layer"
     id="layer1">
    <path
       style="fill:#8b481a;fill-opacity:1;stroke:#000000;stroke-width:0.96837801px;stroke-linecap:butt;stroke-linejoin:miter;stroke-opacity:1"
       d="M 210.83238,105.66749 C 218.10135,169.08509 232.16567,319.85646 235.22744,430.68885 238.57292,551.7907 241.65456,658.43353 237.42869,721.92703 225.55741,795.82885 166.69823,839.74771 110.57998,877.35242 96.789521,890.41834 57.476379,910.70588 61.043626,920.31078 97.580141,922.10359 130.81592,901.4561 163.69471,887.26395 185.14488,880.25378 214.20043,851.07314 226.59546,850.09378 226.69115,902.07614 187.47656,938.75517 160.46634,977.1343 143.30444,1014.3508 185.23055,976.62254 196.26963,968.97854 232.97392,940.29333 264.83508,903.74617 285.92505,860.52722 312.07447,856.91226 301.57468,904.11546 316.73938,919.89735 329.3794,950.95874 350.47128,978.83223 378.48033,995.38074 357.92108,945.82776 352.14237,891.32926 349.15805,837.76225 381.70411,857.65214 409.30339,885.59182 443.11313,903.39132 474.62587,923.35195 507.23367,941.4123 540.99982,956.6479 505.3252,874.00705 410.71231,843.21168 378.23507,758.07532 361.485,708.52391 358.25879,657.63125 352.56471,606.02835 349.95231,559.52023 347.30313,436.89106 343.79534,337.10238 340.28754,237.31369 355.3939,136.91662 355.06132,90.341871 309.06662,94.627591 256.82708,101.38177 210.83238,105.66749 z"
       id="path2991"
       inkscape:connector-curvature="0"
       sodipodi:nodetypes="cscccccccccccccccscc" />
  </g>
</svg>
