<?xml version="1.0" encoding="UTF-8" standalone="no"?>
<!-- Created with Inkscape (http://www.inkscape.org/) -->

<svg
   xmlns:dc="http://purl.org/dc/elements/1.1/"
   xmlns:cc="http://creativecommons.org/ns#"
   xmlns:rdf="http://www.w3.org/1999/02/22-rdf-syntax-ns#"
   xmlns:svg="http://www.w3.org/2000/svg"
   xmlns="http://www.w3.org/2000/svg"
   xmlns:sodipodi="http://sodipodi.sourceforge.net/DTD/sodipodi-0.dtd"
   xmlns:inkscape="http://www.inkscape.org/namespaces/inkscape"
   width="1000"
   height="1000"
   id="svg3009"
   version="1.1"
   inkscape:version="0.48.2 r9819"
   sodipodi:docname="big_cloud2.svg">
  <defs
     id="defs3011" />
  <sodipodi:namedview
     id="base"
     pagecolor="#ffffff"
     bordercolor="#666666"
     borderopacity="1.0"
     inkscape:pageopacity="0.0"
     inkscape:pageshadow="2"
     inkscape:zoom="0.5"
     inkscape:cx="500"
     inkscape:cy="500"
     inkscape:document-units="px"
     inkscape:current-layer="layer1"
     showgrid="false"
     units="px"
     inkscape:window-width="1920"
     inkscape:window-height="1005"
     inkscape:window-x="-9"
     inkscape:window-y="-9"
     inkscape:window-maximized="1" />
  <metadata
     id="metadata3014">
    <rdf:RDF>
      <cc:Work
         rdf:about="">
        <dc:format>image/svg+xml</dc:format>
        <dc:type
           rdf:resource="http://purl.org/dc/dcmitype/StillImage" />
        <dc:title />
      </cc:Work>
    </rdf:RDF>
  </metadata>
  <g
     inkscape:label="Layer 1"
     inkscape:groupmode="layer"
     id="layer1"
     transform="translate(0,-52.3675)">
    <path
       style="fill:#000000"
       d="M 772.60767,1025.7353 C 739.92431,1024.3297 705.97979,1022.7614 675.66032,1010.477 645.56565,998.28363 618.16067,978.1292 596.02843,954.36928 578.78389,935.85634 564.67427,915.30087 556.81705,889.3819 542.94014,920.90222 517.71287,937.50142 491.20394,952.07133 457.71413,970.47813 418.12655,979.97546 379.91357,979.5998 342.83407,979.23514 304.89165,968.76665 272.4704,950.76988 243.77305,934.84018 216.6334,912.14603 200.51345,883.55516 187.13015,859.81806 175.66299,827.38886 183.68662,803.5557 158.04331,800.46203 134.25784,794.53032 113.39951,781.58958 85.81419,764.47538 58.421507,741.23615 46.086579,711.20791 32.0235,676.97265 32.437195,635.25994 44.264576,600.18948 56.156234,564.92845 82.98723,534.02847 113.32194,512.47489 143.9035,490.74588 182.40725,470.18606 219.73379,475.82858 211.18735,436.1496 231.38649,405.77453 249.86698,376.53829 269.21031,345.93706 298.0799,320.13985 330.21168,303.46207 377.0025,279.17563 431.97382,265.48235 484.57261,269.02921 528.62239,271.9996 572.52427,281.64166 608.80316,314.95988 606.12104,266.35793 630.45433,235.04217 659.72275,208.97357 700.49835,172.65586 760.10188,159.36304 814.57119,155.52659 867.3636,151.80823 933.00155,154.7226 970.43182,185.77957 976.81123,146.42751 1002.8457,125.47977 1028.5532,104.15469 1057.9594,79.761487 1095.4876,65.154479 1132.5975,56.065797 1173.9852,45.929481 1218.271,42.907446 1260.2864,50.006461 1294.0172,55.705682 1328.2935,67.55446 1355.5088,88.280552 1376.5,104.26655 1403.4531,121.85734 1403.4923,151.23462 1433.1871,123.827 1475.2442,118.91529 1513.4684,118.74905 1568.3815,118.51026 1628.6754,130.12235 1671.8605,164.04208 1702.8242,188.36243 1729.3919,227.31998 1730.3162,266.68204 1731.061,298.39599 1718.3581,327.06294 1687.1524,351.49859 1720.8165,354.86856 1745.5534,378.23374 1765.1277,402.29969 1789.1737,431.8635 1803.7435,470.79983 1806.7144,508.79195 1809.4801,544.16139 1801.772,582.11057 1783.8799,612.74582 1769.3914,637.55329 1754.5501,657.45426 1719.6464,670.20896 1748.803,702.52674 1756.849,732.13156 1756.5459,766.5047 1756.146,811.84361 1734.8046,857.92501 1705.642,892.64269 1680.5003,922.57342 1644.7332,948.66409 1606.1037,954.64022 1561.5171,961.53801 1499.8237,943.70588 1474.9634,921.14333 1465.4313,947.55107 1442.6881,979.23475 1418.6395,1001.3445 1394.6773,1023.3749 1365.3905,1040.9225 1334.3018,1050.5667 1297.504,1061.9823 1256.9242,1065.9866 1219.029,1059.0336 1172.7458,1050.5414 1129.1785,1027.0063 1091.0824,999.38486 1063.2802,979.22708 1035.361,951.70529 1020.68,924.17074 1006.2156,948.16642 979.4922,971.54675 953.38885,988.19649 930.19286,1002.9919 903.42093,1012.3564 876.58682,1018.4298 842.69879,1026.0998 807.32074,1027.2283 772.60767,1025.7353 z"
       id="path2890"
       inkscape:connector-curvature="0"
       sodipodi:nodetypes="aaacaaaacaaaacaaacaacaaaacaaacaaacaaacaaaacaaa" />
  </g>
</svg>
