<?xml version="1.0" encoding="UTF-8" standalone="no"?>
<!-- Created with Inkscape (http://www.inkscape.org/) -->

<svg
   xmlns:dc="http://purl.org/dc/elements/1.1/"
   xmlns:cc="http://creativecommons.org/ns#"
   xmlns:rdf="http://www.w3.org/1999/02/22-rdf-syntax-ns#"
   xmlns:svg="http://www.w3.org/2000/svg"
   xmlns="http://www.w3.org/2000/svg"
   xmlns:sodipodi="http://sodipodi.sourceforge.net/DTD/sodipodi-0.dtd"
   xmlns:inkscape="http://www.inkscape.org/namespaces/inkscape"
   width="1000"
   height="1000"
   id="svg3009"
   version="1.1"
   inkscape:version="0.48.2 r9819"
   sodipodi:docname="big_cloud3.svg">
  <defs
     id="defs3011" />
  <sodipodi:namedview
     id="base"
     pagecolor="#ffffff"
     bordercolor="#666666"
     borderopacity="1.0"
     inkscape:pageopacity="0.0"
     inkscape:pageshadow="2"
     inkscape:zoom="0.5"
     inkscape:cx="500"
     inkscape:cy="500"
     inkscape:document-units="px"
     inkscape:current-layer="layer1"
     showgrid="false"
     units="px"
     inkscape:window-width="1920"
     inkscape:window-height="1005"
     inkscape:window-x="-9"
     inkscape:window-y="-9"
     inkscape:window-maximized="1" />
  <metadata
     id="metadata3014">
    <rdf:RDF>
      <cc:Work
         rdf:about="">
        <dc:format>image/svg+xml</dc:format>
        <dc:type
           rdf:resource="http://purl.org/dc/dcmitype/StillImage" />
        <dc:title />
      </cc:Work>
    </rdf:RDF>
  </metadata>
  <g
     inkscape:label="Layer 1"
     inkscape:groupmode="layer"
     id="layer1"
     transform="translate(0,-52.3675)">
    <path
       style="fill:#000000"
       d="M 788.51809,1067.8768 C 746.58136,1067.6302 704.554,1056.5949 665.59316,1041.0772 624.64284,1024.7668 583.63306,1003.8118 552.40507,972.70299 527.83632,948.22781 507.14414,913.88124 498.27159,883.85782 474.81157,900.59348 422.03889,919.09749 381.39301,918.64349 344.86016,918.23549 309.80816,901.24961 277.06611,885.03926 249.35746,871.32091 222.06626,854.62793 200.92306,832.06851 177.49114,807.06705 157.75407,776.8487 147.80485,744.05936 138.34387,712.87911 138.02463,671.67324 143.29323,646.41147 114.08173,639.03455 73.612208,614.73788 52.235742,585.02138 30.137557,554.30159 23.593182,513.4037 22.000282,475.595 20.514801,440.33598 25.072537,402.76449 41.513494,371.5379 58.593541,339.09747 86.686169,310.65016 119.16746,293.64795 154.5004,275.15306 197.20284,269.07336 236.92917,272.51794 228.44968,233.14978 231.94421,208.17809 248.55123,183.14297 277.26202,139.8614 332.8554,117.7347 383.09185,104.54747 433.45742,91.326362 488.73928,94.437865 539.28947,106.93452 574.06592,115.53171 598.60111,127.33993 635.13426,155.55126 658.85646,124.55994 683.88551,104.18197 716.11347,93.037047 762.5956,76.96282 815.47577,81.913197 863.65724,91.788161 907.92611,100.8612 953.39359,122.35693 987.83848,146.17096 1007.6288,122.74176 1034.9845,102.50647 1063.7797,89.552264 1098.6673,73.857205 1137.9289,67.908315 1176.1466,66.206851 1211.4712,64.634179 1247.5561,68.613724 1281.5142,78.470072 1314.0052,87.900586 1346.7304,101.14926 1372.9449,122.53605 1393.2293,139.08479 1407.0528,156.9267 1420.5526,184.99699 1450.0148,165.34215 1501.5392,147.79874 1544.8964,146.67418 1593.6693,145.40916 1648.8493,151.83612 1686.8186,182.47487 1720.709,209.82228 1745.0507,255.9925 1744.8164,299.54007 1744.647,331.01382 1730.2598,362.14017 1701.9907,383.69223 1727.8529,389.72798 1759.9342,410.21796 1779.3551,434.09539 1803.2128,463.42762 1817.6685,502.05895 1820.6161,539.75348 1823.3602,574.84585 1818.9465,614.63368 1797.9605,642.89304 1777.212,670.83249 1743.6015,684.39017 1706.8175,693.81435 1717.9773,719.41777 1724.9286,763.85594 1719.0611,798.49333 1713.0122,834.2015 1697.5068,870.92062 1671.6018,896.23062 1643.3157,923.8672 1603.0482,941.55443 1563.7057,945.55916 1537.0513,948.27245 1504.6533,939.17097 1485.3721,927.55399 1475.9147,953.75478 1455.3893,983.13841 1432.5352,1004.081 1403.7123,1030.493 1368.52,1052.6132 1330.5831,1062.0552 1288.6444,1072.4932 1243.1886,1067.5771 1200.9841,1058.2723 1164.6573,1050.2635 1128.7903,1035.7816 1098.4064,1014.3201 1075.2648,997.97427 1053.1512,974.35155 1040.7389,951.87854 1026.3878,975.68626 999.87373,998.88345 973.97487,1015.4028 950.96057,1030.0821 923.94002,1037.6206 897.77444,1045.3993 862.13446,1055.9943 825.69897,1068.0953 788.51809,1067.8768 z"
       id="path2890"
       inkscape:connector-curvature="0"
       sodipodi:nodetypes="aaacaaaacaaaacaaacaacaaaacaaacaaacaaacaaaacaaa" />
  </g>
</svg>
