<?xml version="1.0" encoding="UTF-8" standalone="no"?>
<!-- Created with Inkscape (http://www.inkscape.org/) -->

<svg
   xmlns:dc="http://purl.org/dc/elements/1.1/"
   xmlns:cc="http://creativecommons.org/ns#"
   xmlns:rdf="http://www.w3.org/1999/02/22-rdf-syntax-ns#"
   xmlns:svg="http://www.w3.org/2000/svg"
   xmlns="http://www.w3.org/2000/svg"
   xmlns:sodipodi="http://sodipodi.sourceforge.net/DTD/sodipodi-0.dtd"
   xmlns:inkscape="http://www.inkscape.org/namespaces/inkscape"
   width="1000"
   height="1000"
   id="svg3009"
   version="1.1"
   inkscape:version="0.48.2 r9819"
   sodipodi:docname="big_cloud1.svg">
  <defs
     id="defs3011" />
  <sodipodi:namedview
     id="base"
     pagecolor="#ffffff"
     bordercolor="#666666"
     borderopacity="1.0"
     inkscape:pageopacity="0.0"
     inkscape:pageshadow="2"
     inkscape:zoom="0.5"
     inkscape:cx="500"
     inkscape:cy="500"
     inkscape:document-units="px"
     inkscape:current-layer="layer1"
     showgrid="false"
     units="px"
     inkscape:window-width="1920"
     inkscape:window-height="1005"
     inkscape:window-x="-9"
     inkscape:window-y="-9"
     inkscape:window-maximized="1" />
  <metadata
     id="metadata3014">
    <rdf:RDF>
      <cc:Work
         rdf:about="">
        <dc:format>image/svg+xml</dc:format>
        <dc:type
           rdf:resource="http://purl.org/dc/dcmitype/StillImage" />
        <dc:title />
      </cc:Work>
    </rdf:RDF>
  </metadata>
  <g
     inkscape:label="Layer 1"
     inkscape:groupmode="layer"
     id="layer1"
     transform="translate(0,-52.3675)">
    <path
       style="fill:#000000"
       d="M 836.26099,1056.8653 C 806.24907,1057.6756 775.48579,1055.9993 746.67503,1047.5547 716.29884,1038.6509 687.03183,1024.0311 661.86706,1004.8297 648.65006,994.74433 633.71489,984.2836 628.46274,967.79266 605.42761,988.89467 575.17315,1007.477 544.4962,1019.0744 504.95962,1034.0214 461.77264,1044.2404 419.62147,1041.1036 378.96487,1038.079 339.19659,1022.2192 303.64574,1002.2629 276.9179,987.25888 251.37827,967.79266 233.30749,943.0359 217.94889,921.99361 206.47762,888.4406 203.58792,870.75478 186.27026,874.24535 137.98188,882.10081 106.56974,874.32056 77.806971,867.19712 47.866333,853.24664 29.527001,829.97198 4.706701,798.47212 -2.9493404,754.63162 -4.4396346,714.55586 -5.8011426,677.94466 -0.8662752,638.09483 18.673712,607.10413 37.496787,577.25049 71.010047,552.14675 102.4735,542.39282 76.015242,506.31091 60.256948,460.27213 61.146435,415.93432 62.058776,370.45727 79.600766,322.98848 108.70345,288.03101 149.41076,239.13422 210.64737,204.73037 272.58532,190.18142 311.82896,180.96329 345.03828,185.39303 393.16381,199.46488 397.07459,169.78734 448.00968,122.62751 489.04003,103.7841 568.50141,67.290973 666.36381,60.205145 750.59127,83.691431 802.26583,98.100612 843.30539,130.04654 881.52419,177.27309 892.47094,157.04029 920.42464,130.46939 945.3029,113.65418 980.6623,89.754778 1021.0561,71.12973 1063.0017,63.253851 1132.8058,50.147126 1208.8543,47.086645 1275.9548,70.365698 1332.8663,90.109882 1387.2422,127.93915 1421.5002,177.48848 1434.2621,195.94666 1439.6466,212.31041 1439.6866,242.30656 1463.3576,227.62042 1541.3361,217.49525 1592.9516,219.45845 1637.4187,221.14977 1684.2344,227.46651 1723.1121,249.11468 1760.8597,270.13318 1800.6043,300.35107 1814.1449,341.37862 1825.9303,377.08434 1814.6307,428.10805 1798.2829,453.05847 1837.089,449.85002 1866.3981,459.28443 1896.7082,473.58408 1926.4441,487.61264 1958.4836,506.12978 1973.6512,535.30123 1992.9051,572.33132 1992.8262,620.03165 1981.6814,660.25242 1970.9236,699.07682 1953.0321,728.92029 1912.9602,759.67546 1924.9992,812.62233 1923.5705,835.12116 1913.0221,870.53806 1899.0893,917.31838 1873.7235,966.40683 1832.8348,993.0642 1794.3087,1018.1823 1742.1919,1022.4992 1696.7193,1015.6184 1643.8889,1007.6244 1576.5802,976.813 1553.4127,943.80103 1547.5587,969.10266 1528.6491,990.80611 1508.4405,1006.8842 1480.5876,1029.044 1444.7148,1040.8876 1409.7879,1047.7397 1362.0596,1057.1029 1311.7646,1055.4847 1263.8757,1046.9812 1229.2302,1040.8286 1194.1666,1030.1985 1164.5793,1011.1526 1135.7309,992.58213 1105.4677,963.38661 1092.6938,937.48851 1084.5742,955.34026 1058.6198,980.76726 1036.5234,996.59377 1008.4423,1016.7072 975.48069,1029.964 942.43059,1040.0023 908.14374,1050.4165 872.08151,1055.899 836.26099,1056.8653 z"
       id="path2890"
       inkscape:connector-curvature="0"
       sodipodi:nodetypes="aaacaaaacaaaacaaacaacaaaacaaacaaacaaacaaaacaaa" />
  </g>
</svg>
