<?xml version="1.0" encoding="UTF-8" standalone="no"?>
<!-- Created with Inkscape (http://www.inkscape.org/) -->

<svg
   xmlns:dc="http://purl.org/dc/elements/1.1/"
   xmlns:cc="http://creativecommons.org/ns#"
   xmlns:rdf="http://www.w3.org/1999/02/22-rdf-syntax-ns#"
   xmlns:svg="http://www.w3.org/2000/svg"
   xmlns="http://www.w3.org/2000/svg"
   xmlns:sodipodi="http://sodipodi.sourceforge.net/DTD/sodipodi-0.dtd"
   xmlns:inkscape="http://www.inkscape.org/namespaces/inkscape"
   width="744.09448819"
   height="1052.3622047"
   id="svg2"
   version="1.1"
   inkscape:version="0.48.2 r9819"
   sodipodi:docname="cloud.svg">
  <defs
     id="defs4">
    <inkscape:perspective
       sodipodi:type="inkscape:persp3d"
       inkscape:vp_x="0 : 526.18109 : 1"
       inkscape:vp_y="0 : 1000 : 0"
       inkscape:vp_z="744.09448 : 526.18109 : 1"
       inkscape:persp3d-origin="372.04724 : 350.78739 : 1"
       id="perspective10" />
    <inkscape:perspective
       id="perspective2884"
       inkscape:persp3d-origin="0.5 : 0.33333333 : 1"
       inkscape:vp_z="1 : 0.5 : 1"
       inkscape:vp_y="0 : 1000 : 0"
       inkscape:vp_x="0 : 0.5 : 1"
       sodipodi:type="inkscape:persp3d" />
  </defs>
  <sodipodi:namedview
     id="base"
     pagecolor="#ffffff"
     bordercolor="#666666"
     borderopacity="1.0"
     inkscape:pageopacity="0.0"
     inkscape:pageshadow="2"
     inkscape:zoom="0.35"
     inkscape:cx="375"
     inkscape:cy="520"
     inkscape:document-units="px"
     inkscape:current-layer="layer1"
     showgrid="false"
     inkscape:window-width="1920"
     inkscape:window-height="1005"
     inkscape:window-x="-9"
     inkscape:window-y="-9"
     inkscape:window-maximized="1" />
  <metadata
     id="metadata7">
    <rdf:RDF>
      <cc:Work
         rdf:about="">
        <dc:format>image/svg+xml</dc:format>
        <dc:type
           rdf:resource="http://purl.org/dc/dcmitype/StillImage" />
        <dc:title />
      </cc:Work>
    </rdf:RDF>
  </metadata>
  <g
     inkscape:label="Layer 1"
     inkscape:groupmode="layer"
     id="layer1">
    <path
       style="fill:#000000"
       d="M 324.5,469.48438 C 321.75,468.82523 317.98604,467.46135 316.13564,466.45353 311.89751,464.14522 304,456.92233 304,455.35453 304,454.7047 303.41708,453.37583 302.70462,452.40149 301.47392,450.71839 301.08702,450.71431 294.95462,452.31969 289.98141,453.62159 285.74586,453.90172 276.5,453.54026 265.89399,453.12562 263.86109,452.74825 259,450.2917 250.93274,446.21491 247.71216,441.95952 247.1857,434.68134 246.95136,431.4415 246.67135,428.79076 246.56347,428.79076 246.45559,428.79076 243.70554,428.2987 240.45225,427.6973 227.8063,425.35957 221.06653,418.45279 220.24642,406.9908 219.8474,401.41388 220.13694,399.44266 221.84766,396.08937 223.76058,392.33974 225.00048,391.07947 231.77616,385.99784 L 234.05232,384.29076 231.47671,380.52104 C 226.21399,372.8184 227.28326,360.97744 233.88726,353.82692 242.19257,344.83429 256.79304,340.81375 269.25,344.08905 L 275,345.6009 275,342.59696 C 275,331.25116 290.02224,323.58358 312.5,323.45639 327.84947,323.36949 336.60054,325.73487 341.2466,331.22634 342.98408,333.27997 343.01543,333.26655 347.2466,328.65728 349.58597,326.10886 352.85,323.14592 354.5,322.07296 369.27858,312.46278 396.04388,313.69452 408.3886,324.55292 411.88884,327.63173 415,333.87562 415,337.82155 415,339.50342 415.315,339.51472 420.75,338.02789 424.3398,337.04585 430.63256,336.45071 437.5,336.44375 447.38757,336.43375 449.12208,336.71287 454.65132,339.20396 462.1805,342.59609 465.46467,345.92466 467.00002,351.71966 468.33259,356.74928 467.57099,363.98968 465.35335,367.37423 463.90354,369.58693 463.97482,369.64364 469.68965,370.82425 478.11127,372.56406 484.54212,376.14174 487.62705,380.80339 490.0215,384.42163 490.21965,385.45202 489.78778,392.03886 489.08363,402.77827 484.09908,411.30231 475.60614,416.29076 474.06768,417.1944 474.02154,417.97369 475.12741,424.37776 477.37258,437.37964 472.87398,445.33437 460.67853,449.92722 455.66267,451.81621 452.52412,452.25753 444,452.27242 438.225,452.28252 432.375,451.93284 431,451.49538 428.69074,450.76068 428.3698,451.06676 426.79354,455.50702 424.68891,461.43563 420.193,465.76273 413.03241,468.75147 408.20628,470.76583 406.38781,470.97597 397.53241,470.54261 382.75724,469.81954 369.9187,464.28603 364.86984,456.46477 L 362.82092,453.29076 356.5903,459.41441 C 353.16346,462.78242 348.15843,466.51179 345.46801,467.70189 339.44717,470.36519 331.12603,471.07257 324.5,469.48438 z"
       id="path2890"
       inkscape:connector-curvature="0" />
  </g>
</svg>
