<?xml version="1.0" encoding="UTF-8" standalone="no"?>
<!-- Created with Inkscape (http://www.inkscape.org/) -->

<svg
   xmlns:dc="http://purl.org/dc/elements/1.1/"
   xmlns:cc="http://creativecommons.org/ns#"
   xmlns:rdf="http://www.w3.org/1999/02/22-rdf-syntax-ns#"
   xmlns:svg="http://www.w3.org/2000/svg"
   xmlns="http://www.w3.org/2000/svg"
   xmlns:sodipodi="http://sodipodi.sourceforge.net/DTD/sodipodi-0.dtd"
   xmlns:inkscape="http://www.inkscape.org/namespaces/inkscape"
   width="744.09448819"
   height="1052.3622047"
   id="svg2"
   version="1.1"
   inkscape:version="0.48.2 r9819"
   sodipodi:docname="cloud.svg">
  <defs
     id="defs4">
    <inkscape:perspective
       sodipodi:type="inkscape:persp3d"
       inkscape:vp_x="0 : 526.18109 : 1"
       inkscape:vp_y="0 : 1000 : 0"
       inkscape:vp_z="744.09448 : 526.18109 : 1"
       inkscape:persp3d-origin="372.04724 : 350.78739 : 1"
       id="perspective10" />
    <inkscape:perspective
       id="perspective2884"
       inkscape:persp3d-origin="0.5 : 0.33333333 : 1"
       inkscape:vp_z="1 : 0.5 : 1"
       inkscape:vp_y="0 : 1000 : 0"
       inkscape:vp_x="0 : 0.5 : 1"
       sodipodi:type="inkscape:persp3d" />
  </defs>
  <sodipodi:namedview
     id="base"
     pagecolor="#ffffff"
     bordercolor="#666666"
     borderopacity="1.0"
     inkscape:pageopacity="0.0"
     inkscape:pageshadow="2"
     inkscape:zoom="3.959798"
     inkscape:cx="375"
     inkscape:cy="669.78973"
     inkscape:document-units="px"
     inkscape:current-layer="layer1"
     showgrid="false"
     inkscape:window-width="1920"
     inkscape:window-height="1005"
     inkscape:window-x="-9"
     inkscape:window-y="-9"
     inkscape:window-maximized="1" />
  <metadata
     id="metadata7">
    <rdf:RDF>
      <cc:Work
         rdf:about="">
        <dc:format>image/svg+xml</dc:format>
        <dc:type
           rdf:resource="http://purl.org/dc/dcmitype/StillImage" />
        <dc:title></dc:title>
      </cc:Work>
    </rdf:RDF>
  </metadata>
  <g
     inkscape:label="Layer 1"
     inkscape:groupmode="layer"
     id="layer1">
    <path
       style="fill:#000000"
       d="M 376.53125 315.71875 C 372.82458 316.13631 369.09728 316.55607 365.48383 317.51136 C 362.53181 318.35716 359.65539 319.48595 356.91335 320.86785 C 354.05236 322.35757 351.62613 324.51778 349.33 326.7532 C 347.53009 328.46781 345.77046 330.22391 344 331.96875 C 343.06057 332.52914 341.84163 332.07185 341.21875 331.25 C 339.54031 329.58294 337.63435 328.10117 335.44888 327.16017 C 332.9773 326.01657 330.35459 325.23827 327.68098 324.7362 C 322.71869 323.7494 317.63983 323.66052 312.59849 323.56675 C 308.49529 323.60725 304.39469 323.95435 300.34122 324.58896 C 296.19104 325.25335 292.09817 326.33933 288.23192 328.00154 C 285.74805 329.05557 283.30197 330.25615 281.16923 331.92842 C 279.44639 333.25735 277.93151 334.86237 276.65625 336.625 C 275.30186 338.57664 274.30489 340.80331 273.99823 343.17242 C 273.72595 344.17086 273.94606 345.24396 273.59375 346.21875 C 273.23302 347.07136 272.22415 347.37052 271.38886 347.09923 C 269.59402 346.80403 267.87436 346.17256 266.07037 345.9253 C 262.80615 345.32284 259.46419 344.89872 256.14678 345.28495 C 251.3143 345.65279 246.52599 346.85065 242.17931 349.01737 C 240.7077 349.71541 239.33096 350.59902 237.94467 351.44955 C 235.27348 353.3105 232.82212 355.51753 230.86656 358.13021 C 228.79146 360.66837 227.48574 363.73815 226.60992 366.87475 C 225.87766 369.3756 225.60711 371.99395 225.625 374.59375 C 225.82785 378.11959 226.69599 381.6225 228.29442 384.77822 C 228.79942 385.84718 229.37261 386.88262 229.90625 387.9375 C 230.17822 388.9811 229.45596 389.9845 228.59375 390.5 C 225.5792 392.82954 222.37167 395.0735 220.16454 398.23756 C 218.99166 399.8995 218.1346 401.77328 217.6882 403.75983 C 216.96334 407.2058 217.29691 410.78369 217.97657 414.20983 C 218.51742 416.68626 219.26564 419.1672 220.6014 421.3396 C 221.68243 422.97698 222.94101 424.51195 224.39007 425.83622 C 226.53527 427.7466 229.06475 429.15356 231.68417 430.30168 C 234.66777 431.42699 237.7666 432.22798 240.90625 432.78125 C 241.94693 432.98705 243.12537 433.47523 243.45652 434.58605 C 243.81297 435.70026 243.82611 436.88851 244.10233 438.02405 C 244.52251 440.51282 245.18845 443.0116 246.56311 445.15726 C 248.01077 447.4303 250.20259 449.1011 252.40625 450.59375 C 254.85551 452.10913 257.5261 453.23725 260.25 454.15625 C 263.24468 455.00901 266.33939 455.53985 269.45932 455.53696 C 274.25412 455.59732 279.05842 455.67439 283.84375 455.3125 C 288.53617 454.8789 293.13426 453.81583 297.74246 452.87411 C 298.88336 452.69538 300.17134 452.31271 301.2223 452.99503 C 302.63468 453.87121 302.93807 455.65021 303.95186 456.86617 C 305.18631 458.70487 307.1009 459.89019 308.75 461.3125 C 310.8173 462.91616 312.8788 464.56541 315.1875 465.8125 C 317.80728 467.12822 320.542 468.22252 323.39081 468.93045 C 326.09665 469.64447 328.88685 470.05094 331.68281 470.15625 C 335.56941 470.13761 339.49699 469.65278 343.17048 468.34026 C 345.66265 467.45946 348.01463 466.19449 350.11749 464.59193 C 353.32971 462.28673 356.14651 459.49758 359.06543 456.84441 C 359.97352 456.04619 360.79364 455.15021 361.625 454.28125 C 362.28106 453.6566 363.47332 453.9549 363.84375 454.75 C 364.85164 456.44439 366.12626 457.95352 367.49652 459.36375 C 368.95336 460.92992 370.71261 462.18564 372.49856 463.34838 C 374.87972 464.81354 377.45896 465.93213 380.0625 466.9375 C 383.9753 468.35581 388.0202 469.43966 392.14646 470.01137 C 395.62895 470.54999 399.13382 470.95758 402.64623 471.24022 C 404.74782 471.39083 406.86711 471.47354 408.95746 471.1502 C 412.02517 470.82846 415.01039 469.9765 417.9375 469.03125 C 421.02755 467.93568 424.04659 466.55522 426.67674 464.57479 C 429.10352 462.84905 430.84206 460.37604 433.06035 458.42008 C 433.73574 457.6801 434.82164 457.62505 435.75 457.75 C 438.01198 458.23328 440.21462 459.09443 442.10013 460.45217 C 444.22814 461.68776 446.30956 463.00609 448.46875 464.1875 C 450.54413 465.25294 452.75899 466.06935 455.0625 466.46875 C 457.02863 466.78155 459.03242 466.93164 461.01975 466.7732 C 463.591 466.52236 466.12349 465.80385 468.4375 464.65625 C 470.0596 463.74977 471.56643 462.64515 472.91354 461.36505 C 475.69563 458.85639 477.54403 455.51964 479.07031 452.14376 C 480.30468 449.22601 480.94488 446.10627 481.65625 443.03125 C 482.29999 439.52845 482.64604 435.97429 482.77281 432.41635 C 482.8538 431.0485 482.97699 429.66829 483.34375 428.34375 C 484.12153 426.80267 485.52992 425.76252 486.71875 424.5625 C 488.4629 422.62391 490.14153 420.60467 491.49281 418.36872 C 493.57133 414.91345 495.04656 411.10355 495.82977 407.1476 C 496.38056 404.72491 496.57791 402.23811 496.73536 399.76433 C 496.87896 396.72436 496.77207 393.51426 495.28289 390.7796 C 493.90652 388.42078 491.76519 386.54907 489.34375 385.3125 C 486.04761 383.87373 482.41429 383.50532 478.85815 383.32485 C 477.87835 383.23751 476.65271 383.45863 475.94105 382.61337 C 475.37487 381.92325 475.43471 380.93068 475.68811 380.12241 C 476.43615 376.84848 476.46549 373.44835 476.10084 370.12133 C 475.73563 366.9857 475.21397 363.83978 474.09375 360.875 C 473.14592 358.14609 471.86003 355.49703 469.95976 353.29882 C 468.52742 351.53901 466.78957 350.05291 464.88149 348.83117 C 462.74352 347.49145 460.5672 346.1894 458.2284 345.22651 C 455.54087 344.07437 452.65535 343.38081 449.73374 343.21841 C 445.76813 342.99004 441.79233 343.01506 437.82225 343.01635 C 434.91587 343.14414 432.00479 343.23645 429.1166 343.60837 C 426.54482 343.84812 424.01125 344.40943 421.44219 344.65625 C 420.28842 344.73891 419.36001 343.75798 419.09844 342.70157 C 418.53507 341.19647 418.25387 339.58695 417.4714 338.16822 C 416.27892 335.50237 414.8623 332.93277 413.21672 330.52107 C 411.48866 328.10601 409.43475 325.91393 407.0686 324.11448 C 404.81936 322.48972 402.49509 320.94127 399.94784 319.81871 C 398.27456 319.07961 396.55382 318.43612 394.80409 317.90172 C 392.20353 317.12608 389.51824 316.69087 386.84907 316.23482 C 383.98365 316.00129 381.12074 315.69884 378.24247 315.69699 C 377.67212 315.67397 377.10163 315.71236 376.53125 315.71875 z "
       id="path2890"
       inkscape:connector-curvature="0" />
  </g>
</svg>
