<?xml version="1.0" encoding="UTF-8" standalone="no"?>
<!-- Created with Inkscape (http://www.inkscape.org/) -->

<svg
   xmlns:dc="http://purl.org/dc/elements/1.1/"
   xmlns:cc="http://creativecommons.org/ns#"
   xmlns:rdf="http://www.w3.org/1999/02/22-rdf-syntax-ns#"
   xmlns:svg="http://www.w3.org/2000/svg"
   xmlns="http://www.w3.org/2000/svg"
   xmlns:sodipodi="http://sodipodi.sourceforge.net/DTD/sodipodi-0.dtd"
   xmlns:inkscape="http://www.inkscape.org/namespaces/inkscape"
   width="744.09448819"
   height="1052.3622047"
   id="svg2"
   version="1.1"
   inkscape:version="0.48.2 r9819"
   sodipodi:docname="cloud2.svg">
  <defs
     id="defs4">
    <inkscape:perspective
       sodipodi:type="inkscape:persp3d"
       inkscape:vp_x="0 : 526.18109 : 1"
       inkscape:vp_y="0 : 1000 : 0"
       inkscape:vp_z="744.09448 : 526.18109 : 1"
       inkscape:persp3d-origin="372.04724 : 350.78739 : 1"
       id="perspective10" />
    <inkscape:perspective
       id="perspective2884"
       inkscape:persp3d-origin="0.5 : 0.33333333 : 1"
       inkscape:vp_z="1 : 0.5 : 1"
       inkscape:vp_y="0 : 1000 : 0"
       inkscape:vp_x="0 : 0.5 : 1"
       sodipodi:type="inkscape:persp3d" />
  </defs>
  <sodipodi:namedview
     id="base"
     pagecolor="#ffffff"
     bordercolor="#666666"
     borderopacity="1.0"
     inkscape:pageopacity="0.0"
     inkscape:pageshadow="2"
     inkscape:zoom="2.8"
     inkscape:cx="302.3814"
     inkscape:cy="634.61814"
     inkscape:document-units="px"
     inkscape:current-layer="layer1"
     showgrid="false"
     inkscape:window-width="1920"
     inkscape:window-height="1005"
     inkscape:window-x="-9"
     inkscape:window-y="-9"
     inkscape:window-maximized="1" />
  <metadata
     id="metadata7">
    <rdf:RDF>
      <cc:Work
         rdf:about="">
        <dc:format>image/svg+xml</dc:format>
        <dc:type
           rdf:resource="http://purl.org/dc/dcmitype/StillImage" />
        <dc:title></dc:title>
      </cc:Work>
    </rdf:RDF>
  </metadata>
  <g
     inkscape:label="Layer 1"
     inkscape:groupmode="layer"
     id="layer1">
    <path
       style="fill:#000000"
       d="M 336.60696,475.73438 C 332.81558,475.05862 329.19311,473.4041 325.8831,471.43559 322.79901,469.60144 320.12256,467.11356 317.59309,464.56845 314.98368,461.9429 311.83161,459.00718 310.56177,455.97292 308.32989,460.08551 304.01142,463.92448 299.52876,466.14365 294.3903,468.68748 288.30721,469.55747 282.58937,469.13199 277.07426,468.7216 271.67965,466.5702 266.85714,463.86312 263.23148,461.82789 259.39331,459.43044 257.31568,455.8289 255.17373,452.11587 254.21189,447.17309 255.0699,443.16684 250.22074,444.17606 245.43011,443.45327 240.83785,442.22196 235.93353,440.90698 230.71109,439.13327 227.17264,435.49171 224.99803,433.25374 223.7728,430.05947 223.27931,426.97825 222.63878,422.97885 223.03373,418.62532 224.62895,414.90231 226.43963,410.67644 229.22843,405.66157 233.49648,404.33844 229.90739,399.44389 228.99557,394.99577 229.31899,390.04135 229.70518,384.12527 232.5722,378.21717 236.48444,373.76256 240.45519,369.24133 246.09712,365.89827 251.92947,364.41773 258.14401,362.84018 264.61494,363.41104 271.14322,365.3199 271.67372,361.29411 277.63907,351.14027 283.79178,346.98355 291.71328,341.63186 302.24987,339.8324 311.77148,340.68654 319.84813,341.41105 328.99111,343.76037 334.17553,350.1667 335.83904,345.27924 339.46049,341.16932 343.54147,338.14387 347.71177,335.05219 352.98521,333.55933 358.07886,332.55701 365.07547,331.18023 372.42513,330.96552 379.46618,332.09317 384.30054,332.86741 389.31011,334.16781 393.3167,336.98163 396.91868,339.5113 400.78726,343.13384 401.67657,347.20285 406.15923,344.4351 413.86015,343.29743 420.14575,343.38919 426.98895,343.4891 434.15884,344.7706 440.12358,348.12638 445.23142,351.00007 450.6354,355.07665 452.47228,360.64208 454.0709,365.48559 452.53817,372.40702 450.32053,375.79157 455.58465,375.35634 459.56041,376.63612 463.67206,378.57589 467.70577,380.47888 472.05199,382.99074 474.10946,386.94789 476.72121,391.97105 477.35884,398.66434 475.19876,403.89765 473.98032,406.84961 472.38385,408.56966 468.01948,410.24163 472.40511,413.87788 474.11985,417.82579 474.8136,422.42309 475.62239,427.78281 474.38794,433.78351 471.43614,438.32968 468.17481,443.35254 462.69906,447.39191 456.90047,448.88917 450.05604,450.65648 440.60352,449.51796 435.8536,446.28989 435.05957,451.86493 433.55689,454.89195 431.00311,458.41865 428.77342,461.4978 425.49224,463.73919 422.26364,465.74639 418.57183,468.04156 414.58654,470.12943 410.32763,471.00063 403.94569,472.30613 396.91225,472.99898 390.78655,470.7833 385.11407,468.73155 378.48227,462.87527 376.74949,459.36219 374.93376,463.92661 371.74756,467.22005 368.05848,469.87987 364.04746,472.77181 359.07071,474.25589 354.22326,475.23254 348.4645,476.3928 342.3903,476.76519 336.60696,475.73438 z"
       id="path2890"
       inkscape:connector-curvature="0"
       sodipodi:nodetypes="aaacaaaacaaaacaaacaacaaaacaaacaaacaaacaaaacaaa" />
  </g>
</svg>
