<?xml version="1.0" encoding="UTF-8" standalone="no"?>
<!-- Created with Inkscape (http://www.inkscape.org/) -->

<svg
   xmlns:dc="http://purl.org/dc/elements/1.1/"
   xmlns:cc="http://creativecommons.org/ns#"
   xmlns:rdf="http://www.w3.org/1999/02/22-rdf-syntax-ns#"
   xmlns:svg="http://www.w3.org/2000/svg"
   xmlns="http://www.w3.org/2000/svg"
   xmlns:sodipodi="http://sodipodi.sourceforge.net/DTD/sodipodi-0.dtd"
   xmlns:inkscape="http://www.inkscape.org/namespaces/inkscape"
   width="744.09448819"
   height="1052.3622047"
   id="svg2"
   version="1.1"
   inkscape:version="0.48.2 r9819"
   sodipodi:docname="cloud2.svg">
  <defs
     id="defs4">
    <inkscape:perspective
       sodipodi:type="inkscape:persp3d"
       inkscape:vp_x="0 : 526.18109 : 1"
       inkscape:vp_y="0 : 1000 : 0"
       inkscape:vp_z="744.09448 : 526.18109 : 1"
       inkscape:persp3d-origin="372.04724 : 350.78739 : 1"
       id="perspective10" />
    <inkscape:perspective
       id="perspective2884"
       inkscape:persp3d-origin="0.5 : 0.33333333 : 1"
       inkscape:vp_z="1 : 0.5 : 1"
       inkscape:vp_y="0 : 1000 : 0"
       inkscape:vp_x="0 : 0.5 : 1"
       sodipodi:type="inkscape:persp3d" />
  </defs>
  <sodipodi:namedview
     id="base"
     pagecolor="#ffffff"
     bordercolor="#666666"
     borderopacity="1.0"
     inkscape:pageopacity="0.0"
     inkscape:pageshadow="2"
     inkscape:zoom="7.9195959"
     inkscape:cx="338.02439"
     inkscape:cy="658.48906"
     inkscape:document-units="px"
     inkscape:current-layer="layer1"
     showgrid="false"
     inkscape:window-width="1920"
     inkscape:window-height="1005"
     inkscape:window-x="-9"
     inkscape:window-y="-9"
     inkscape:window-maximized="1" />
  <metadata
     id="metadata7">
    <rdf:RDF>
      <cc:Work
         rdf:about="">
        <dc:format>image/svg+xml</dc:format>
        <dc:type
           rdf:resource="http://purl.org/dc/dcmitype/StillImage" />
        <dc:title />
      </cc:Work>
    </rdf:RDF>
  </metadata>
  <g
     inkscape:label="Layer 1"
     inkscape:groupmode="layer"
     id="layer1">
    <path
       style="fill:#000000"
       d="M 282.03553,487.48438 C 277.96438,487.59424 273.79131,487.36681 269.8831,486.2213 265.76254,485.01355 261.79244,483.03035 258.37881,480.4256 256.58591,479.05754 254.55994,477.63853 253.84748,475.40149 250.72274,478.26408 246.61869,480.7847 242.45733,482.35794 237.09415,484.38553 231.23579,485.77176 225.51794,485.34628 220.00283,484.93589 214.60822,482.78449 209.78571,480.07741 206.16005,478.04218 202.69557,475.40155 200.24425,472.04319 198.16084,469.18887 196.60475,464.63738 196.21276,462.23827 193.8636,462.71178 187.31323,463.77732 183.05214,462.72196 179.15044,461.75561 175.08896,459.86324 172.60121,456.706 169.23431,452.43301 168.19576,446.486 167.9936,441.04968 167.80891,436.08333 168.47833,430.67766 171.12895,426.47374 173.68232,422.42406 178.22843,419.01871 182.49648,417.69558 178.90739,412.80103 176.76976,406.55582 176.89042,400.54135 177.01418,394.37234 179.39377,387.93315 183.34158,383.19113 188.86357,376.55823 197.17038,371.89131 205.57233,369.91773 210.89577,368.66728 215.40065,369.26818 221.92893,371.17704 222.45943,367.15125 229.36883,360.75397 234.93464,358.19784 245.71366,353.24751 258.9888,352.28631 270.41434,355.47225 277.42405,357.42687 282.99111,361.76037 288.17553,368.1667 289.66047,365.4221 293.45242,361.81773 296.82718,359.53673 301.62372,356.29475 307.10318,353.76824 312.79315,352.69987 322.26215,350.92193 332.57821,350.50677 341.68047,353.6646 349.40057,356.34292 356.77671,361.4745 361.42385,368.19592 363.15501,370.69979 363.88543,372.91955 363.89086,376.98856 367.10185,374.99637 377.67975,373.62288 384.68147,373.88919 390.71341,374.11862 397.06404,374.97549 402.33787,377.91209 407.45831,380.76327 412.84968,384.86236 414.68657,390.42779 416.28519,395.27131 414.75246,402.19273 412.53482,405.57728 417.79894,405.14205 421.77469,406.42184 425.88635,408.3616 429.92006,410.26459 434.26627,412.77646 436.32375,416.7336 438.9355,421.75677 438.92486,428.22737 437.41305,433.68336 435.95373,438.94993 433.52671,442.99823 428.09091,447.1702 429.724,454.3525 429.53019,457.40449 428.09931,462.2088 426.20932,468.55461 422.76844,475.2135 417.22185,478.82968 411.99577,482.23689 404.92606,482.82257 398.75761,481.88917 391.59111,480.80475 382.46066,476.6251 379.31789,472.14703 378.52386,475.57921 375.95873,478.52338 373.2174,480.70436 369.43912,483.71033 364.57293,485.31694 359.83507,486.24639 353.36067,487.5165 346.5381,487.29704 340.04192,486.14349 335.34222,485.30894 330.58581,483.86692 326.57226,481.2833 322.65894,478.7642 318.5537,474.80384 316.82092,471.29076 315.71948,473.71232 312.19874,477.16157 309.20134,479.30844 305.3921,482.03679 300.92083,483.83509 296.43755,485.19682 291.7865,486.60951 286.89462,487.35326 282.03553,487.48438 z"
       id="path2890"
       inkscape:connector-curvature="0"
       sodipodi:nodetypes="aaacaaaacaaaacaaacaacaaaacaaacaaacaaacaaaacaaa" />
  </g>
</svg>
