<?xml version="1.0" encoding="UTF-8" standalone="no"?>
<!-- Created with Inkscape (http://www.inkscape.org/) -->

<svg
   xmlns:dc="http://purl.org/dc/elements/1.1/"
   xmlns:cc="http://creativecommons.org/ns#"
   xmlns:rdf="http://www.w3.org/1999/02/22-rdf-syntax-ns#"
   xmlns:svg="http://www.w3.org/2000/svg"
   xmlns="http://www.w3.org/2000/svg"
   xmlns:sodipodi="http://sodipodi.sourceforge.net/DTD/sodipodi-0.dtd"
   xmlns:inkscape="http://www.inkscape.org/namespaces/inkscape"
   version="1.0"
   width="1000"
   height="1000"
   viewBox="0 0 999.99999 1000"
   id="svg3097"
   xml:space="preserve"
   inkscape:version="0.48.4 r9939"
   sodipodi:docname="Heckert_GNU_white.svg"><metadata
   id="metadata3983"><rdf:RDF><cc:Work
       rdf:about=""><dc:format>image/svg+xml</dc:format><dc:type
         rdf:resource="http://purl.org/dc/dcmitype/StillImage" /><dc:title></dc:title></cc:Work></rdf:RDF></metadata><sodipodi:namedview
   pagecolor="#ffffff"
   bordercolor="#666666"
   borderopacity="1"
   objecttolerance="10"
   gridtolerance="10"
   guidetolerance="10"
   inkscape:pageopacity="0"
   inkscape:pageshadow="2"
   inkscape:window-width="1920"
   inkscape:window-height="1017"
   id="namedview3981"
   showgrid="false"
   showborder="true"
   borderlayer="false"
   inkscape:showpageshadow="false"
   inkscape:zoom="0.45165217"
   inkscape:cx="267.3215"
   inkscape:cy="261.263"
   inkscape:window-x="-8"
   inkscape:window-y="-8"
   inkscape:window-maximized="1"
   inkscape:current-layer="svg3097" /><defs
   id="defs3105" />

	<g
   style="fill:#ffffff;fill-opacity:1"
   id="Layer_1"
   transform="matrix(1.825566,0,0,1.825566,8.868289,25.99475)">
		<g
   style="fill:#ffffff;fill-opacity:1"
   id="g3100">
			<path
   d="M 101.454,311.936 C 98.863,316.582 92.793,317.323 89.959,316.387 85.238,314.827 79.204,313.745 73.359,317.91 67.514,322.074 61.202,318.925 62.309,311.334 63.416,303.744 66.158,296.983 73.436,292.796 89.331,283.652 78.284,277.288 87.008,268.111 95.749,258.916 93.818,256.102 93.528,243.614 63.985,239.176 47.241,230.661 28.544,207.301 9.847,183.94 2.599,164.711 0.661,135.423 -1.277,106.135 0.403,87.154 13.057,62.843 25.711,38.532 39.034,26.829 62.122,14.69 85.21,2.553 107.832,-0.354 128.742,0 149.652,0.353 163.585,1.885 175.4,8.626 187.214,15.367 198.022,23.85 204.912,23.911 211.803,23.972 216.494,22.167 219.843,19.601 220.737,42.304 200.304,44.276 182.024,44.756 163.743,45.235 152.51,37.673 135.673,40.486 118.836,43.299 91.269,50.961 77.84,74.336 64.411,97.711 63.953,105.974 65.069,125.576 66.185,145.179 83.057,159.804 92.581,159.963 102.104,160.122 104.23,157.364 112.566,151.927 120.903,146.489 163.462,93.805 177.984,81.971 192.507,70.137 206.838,66.483 222.312,66.293 237.786,66.103 241.74,66.628 254.22,71.743 266.7,76.857 274.369,86.276 284.431,92.034 289.574,89.007 292.769,84.487 297.488,81.038 314.365,68.703 323.134,65.379 343.193,67.331 354.722,68.453 369.259,75.039 377.933,82.581 393.378,96.01 406.138,114.706 416.449,128.909 424.478,139.97 433.926,153.204 447.414,157.341 462.141,161.856 473.223,142.782 474.85,132.202 475.772,126.207 476.975,120.953 476.985,114.355 476.995,107.756 476.321,99.748 474.419,92.871 472.517,85.994 469.259,79.151 465.731,73.477 459.989,64.242 450.594,54.578 440.819,49.606 435.333,46.816 422.426,41.743 414.29,41.565 404.321,41.349 396.726,44.698 387.509,45.326 376.353,46.087 356.425,48.595 347.679,39.976 342.113,34.491 341.413,30.832 340.462,23.68 342.921,25.706 346.36,27.038 349.421,27.297 356.407,27.887 362.948,22.183 368.587,18.878 373.232,16.155 379.81,11.289 385.911,8.83 401.587,2.51 420.843,2.692 437.391,4.385 450.655,5.741 467.852,11.642 479.485,18.225 491.173,24.837 502.436,35.986 510.686,46.496 521.065,59.72 526.739,71.066 530.498,87.559 535.303,108.621 536.635,140.261 530.826,161.028 526.248,177.393 511.047,202.532 498.107,214.855 485.345,227.01 470.609,232.877 453.851,236.086 454.507,239.468 454.615,242.622 455.482,245.395 456.714,249.331 459.07,253.719 463.91,252.331 465.84,251.778 466.873,251.299 469.418,253.525 471.961,255.751 470.637,264.35 463.48,268.209 459.851,270.166 456.021,270.591 450.209,270.707 444.397,270.823 435.326,270.848 429.016,269.743 422.707,268.639 418.938,263.632 411.95,262.848 401.151,261.64 392.882,253.838 384.223,248.258 380.61,245.929 379.391,245.905 377.309,244.728 378.434,248.172 379.934,251.749 380.682,255.06 381.432,258.371 381.112,261.438 381.51,264.088 381.906,266.736 382.641,268.795 383.069,270.943 384.799,272.49 385.352,274.843 388.258,275.583 391.166,276.322 395.719,275.171 398.694,274.771 401.669,274.371 403.663,272.75 405.997,273.194 408.333,273.637 410.546,275.309 412.503,276.876 414.46,278.443 416.142,278.672 417.726,282.582 419.31,286.492 420.763,294.499 420.98,299.851 421.197,305.203 420.597,310.034 419.011,314.281 417.425,318.528 416.031,320.411 411.736,324.617 407.441,328.824 400.447,334.997 393.468,339.297 394.753,341.2 395.323,342.942 397.327,345.007 399.331,347.073 403.509,349.388 405.368,351.567 407.225,353.746 408.167,355.309 408.194,357.753 408.223,360.196 408.104,363.372 406.12,366.036 401.179,372.669 395.335,373.857 388.229,376.977 389.424,384.439 390.399,389.77 388.672,397.221 387.967,400.257 386.401,407.141 382.656,408.907 378.91,410.673 371.687,409.818 367.115,410.544 362.543,411.271 359.984,411.961 356.42,412.669 354.254,415.8 351.029,419.255 349.924,422.061 348.817,424.868 349.151,425.874 350.08,428.74 351.009,431.606 354.172,435.779 355.068,439.135 355.964,442.491 356.138,446.104 355.302,449.469 354.464,452.834 353.031,455.276 350.163,458.264 347.296,461.253 341.655,463.6 338.845,466.022 336.033,468.445 333.234,468.736 334.001,472.745 335.056,478.251 343.101,487.181 348.921,489.307 352.409,490.582 357.091,490.18 361.327,488.392 361.04,493.095 356.97,496.265 354.311,499.388 361.512,497.329 368.495,493.387 373.325,488.162 371.827,492.7 366.673,499.985 358.964,506.382 351.255,512.779 351.302,511.47 347.47,514.015 354.462,515.42 360.964,515.04 366.38,514.067 363.411,515.704 358.544,518.006 352.097,518.683 345.65,519.359 341.675,518.881 335.865,517.47 330.054,516.058 324.75,510.776 317.709,507.135 318.395,509.747 318.883,512.888 321.844,515.574 324.805,518.26 329.285,519.626 334.047,521.949 327.985,521.261 321.615,521.053 315.658,519.74 311.248,518.767 308.285,517.735 305.058,516.137 301.833,514.539 299.343,512.208 296.486,510.244 297.855,512.859 298.261,515.935 300.591,518.091 302.921,520.247 306.708,521.05 309.771,522.531 306.576,522.461 303.503,523.154 300.191,522.321 296.877,521.488 293.769,520.179 290.324,517.641 286.879,515.103 283.326,511.978 280.386,508.783 277.448,505.588 273.82,501.446 272.722,498.5 271.622,495.553 273.382,493.492 273.712,490.991 271.683,492.324 269.187,493.058 267.628,494.993 266.069,496.928 264.687,498.695 265.377,502.068 266.068,505.441 269.181,509.564 271.382,513.316 264.814,507.945 261.146,505.877 259.583,499.398 258.12,493.332 261.905,487.826 264.782,483.239 266.211,480.961 268.349,478.841 269.685,476.642 266.718,473.739 263.327,471.244 260.784,467.933 258.242,464.623 257.174,460.143 254.579,456.976 251.983,453.808 248.491,451.803 245.45,449.22 248.123,454.962 252.516,462.005 253.47,466.449 254.423,470.893 252.401,473.613 250.824,476.012 249.246,478.411 246.7,478.946 244.285,480.42 241.87,481.895 238.114,480.732 236.675,482.921 235.237,485.109 234.851,488.401 236.226,490.569 L 241.866,499.471 C 239.788,498.422 236.208,495.371 234.594,493.207 232.98,491.043 230.504,489.044 230.165,486.118 229.826,483.193 229.661,480.654 231.556,478.048 233.452,475.443 238.642,474.571 240.965,472.568 243.288,470.565 244.591,469.261 244.458,466.672 244.326,464.083 241.797,462.231 239.623,460.599 232.986,455.621 224.472,451.034 218.836,445.034 215.652,441.644 214.124,438.907 213.484,436.568 212.845,434.23 213.521,432.406 215.103,429.53 216.685,426.653 222.11,422.812 222.77,419.687 223.429,416.563 220.689,415.892 218.216,414.79 215.743,413.688 211.046,415.355 208.752,413.438 206.459,411.521 209.426,407.493 206.841,405.284 204.257,403.075 198.342,404.308 195.289,401.932 192.236,399.555 190.974,396.605 189.922,393.157 188.87,389.709 188.751,385.932 189.464,383.435 190.177,380.938 192.319,380.501 193.611,379.207 194.903,377.913 196.024,376.84 194.302,374.91 192.58,372.981 186.937,375.018 183.693,372.541 180.449,370.064 182.435,364.131 180.141,361.63 177.848,359.129 173.732,360.108 171.56,359.309 169.389,358.51 168.537,361.329 167.205,356.871 165.873,352.412 165.837,339.121 164.045,334.161 162.253,329.201 158.734,333.826 157.1,328.896 155.466,323.967 157.015,316.084 156.279,308.639 L 152.944,288.382 C 141.31,296.197 104.628,306.247 101.454,311.936 z"
   style="fill:#ffffff;fill-opacity:1;fill-rule:evenodd"
   id="path3102"
   inkscape:connector-curvature="0" />
		</g>
	</g>
</svg>