<?xml version="1.0" encoding="UTF-8" standalone="no"?>
<!-- Created with Inkscape (http://www.inkscape.org/) -->

<svg
   xmlns:dc="http://purl.org/dc/elements/1.1/"
   xmlns:cc="http://creativecommons.org/ns#"
   xmlns:rdf="http://www.w3.org/1999/02/22-rdf-syntax-ns#"
   xmlns:svg="http://www.w3.org/2000/svg"
   xmlns="http://www.w3.org/2000/svg"
   xmlns:sodipodi="http://sodipodi.sourceforge.net/DTD/sodipodi-0.dtd"
   xmlns:inkscape="http://www.inkscape.org/namespaces/inkscape"
   width="744.09448819"
   height="1052.3622047"
   id="svg3824"
   version="1.1"
   inkscape:version="0.48.2 r9819"
   sodipodi:docname="New document 5">
  <defs
     id="defs3826" />
  <sodipodi:namedview
     id="base"
     pagecolor="#ffffff"
     bordercolor="#666666"
     borderopacity="1.0"
     inkscape:pageopacity="0.0"
     inkscape:pageshadow="2"
     inkscape:zoom="0.35"
     inkscape:cx="375"
     inkscape:cy="520"
     inkscape:document-units="px"
     inkscape:current-layer="layer1"
     showgrid="false"
     inkscape:window-width="499"
     inkscape:window-height="444"
     inkscape:window-x="30"
     inkscape:window-y="30"
     inkscape:window-maximized="0" />
  <metadata
     id="metadata3829">
    <rdf:RDF>
      <cc:Work
         rdf:about="">
        <dc:format>image/svg+xml</dc:format>
        <dc:type
           rdf:resource="http://purl.org/dc/dcmitype/StillImage" />
        <dc:title></dc:title>
      </cc:Work>
    </rdf:RDF>
  </metadata>
  <g
     inkscape:label="Layer 1"
     inkscape:groupmode="layer"
     id="layer1">
    <path
       style="fill:#008000;fill-opacity:1;stroke:#000000;stroke-width:0;stroke-miterlimit:4;stroke-opacity:1;stroke-dasharray:none"
       d="M 426.85069,286.57745 C 391.29577,286.61452 355.32102,296.87082 324.32316,319.57927 266.05846,310.24227 200.78008,320.78229 154.83873,371.27707 132.59316,391.83499 128.09985,432.08839 130.50051,460.50879 97.881974,483.18919 77.137854,538.33535 96.926554,582.4264 101.80939,610.34366 135.57742,618.64206 136.42606,641.21397 131.31875,688.6958 167.42007,721.37179 198.33357,735.40167 228.73934,749.67257 261.74834,753.68492 293.89086,749.87332 343.94784,782.29925 403.47268,783.65282 457.56735,769.85327 479.71815,766.02541 498.76675,748.63068 518.37738,739.03628 564.61984,732.0128 616.01067,701.30789 630.52469,640.29008 632.74523,611.06264 630.45316,586.996 648.655,565.0386 673.97937,509.92403 657.62001,436.52126 618.87866,399.08282 594.29174,375.13276 565.25806,364.31599 545.33781,333.0141 511.4918,300.78618 468.6464,286.64838 426.85069,286.57745 z"
       id="path3773"
       inkscape:connector-curvature="0" />
  </g>
</svg>
