<?xml version="1.0" encoding="UTF-8" standalone="no"?>
<!-- Created with Inkscape (http://www.inkscape.org/) -->

<svg
   xmlns:dc="http://purl.org/dc/elements/1.1/"
   xmlns:cc="http://creativecommons.org/ns#"
   xmlns:rdf="http://www.w3.org/1999/02/22-rdf-syntax-ns#"
   xmlns:svg="http://www.w3.org/2000/svg"
   xmlns="http://www.w3.org/2000/svg"
   xmlns:xlink="http://www.w3.org/1999/xlink"
   xmlns:sodipodi="http://sodipodi.sourceforge.net/DTD/sodipodi-0.dtd"
   xmlns:inkscape="http://www.inkscape.org/namespaces/inkscape"
   width="50000"
   height="5000"
   id="svg2"
   version="1.1"
   inkscape:version="0.48.4 r9939"
   sodipodi:docname="level.svg">
  <defs
     id="defs4">
    <pattern
       inkscape:collect="always"
       xlink:href="#seamlesstexture22_light"
       id="pattern4133"
       patternTransform="scale(2.6385842,2.6385842)" />
    <pattern
       inkscape:collect="always"
       xlink:href="#seamlesspaper5_dark"
       id="pattern4131"
       patternTransform="scale(2.2489197,2.2489197)" />
    <pattern
       patternUnits="userSpaceOnUse"
       width="1024"
       height="1024"
       id="bookcover1">
      <image
         id="image2993"
         xlink:href="../textures/bookcover1.jpg"
         height="1024"
         width="1024" />
    </pattern>
    <pattern
       patternUnits="userSpaceOnUse"
       width="1024"
       height="1024"
       id="bookcover2">
      <image
         id="image4038"
         xlink:href="../textures/bookcover2.jpg"
         height="1024"
         width="1024" />
    </pattern>
    <pattern
       patternUnits="userSpaceOnUse"
       width="1024"
       height="1024"
       id="bookcover2_dark">
      <image
         id="image4041"
         xlink:href="../textures/bookcover2_dark.jpg"
         height="1024"
         width="1024" />
    </pattern>
    <pattern
       patternUnits="userSpaceOnUse"
       width="1024"
       height="1024"
       id="seamlesspaper1">
      <image
         id="image4044"
         xlink:href="../textures/seamlesspaper1.jpg"
         height="1024"
         width="1024" />
    </pattern>
    <pattern
       patternUnits="userSpaceOnUse"
       width="1024"
       height="1024"
       id="seamlesspaper2">
      <image
         id="image4047"
         xlink:href="../textures/seamlesspaper2.jpg"
         height="1024"
         width="1024" />
    </pattern>
    <pattern
       patternUnits="userSpaceOnUse"
       width="1024"
       height="1024"
       id="seamlesspaper2_dark">
      <image
         id="image4050"
         xlink:href="../textures/seamlesspaper2_dark.jpg"
         height="1024"
         width="1024" />
    </pattern>
    <pattern
       patternUnits="userSpaceOnUse"
       width="1024"
       height="1024"
       id="seamlesspaper3">
      <image
         id="image4053"
         xlink:href="../textures/seamlesspaper3.jpg"
         height="1024"
         width="1024" />
    </pattern>
    <pattern
       patternUnits="userSpaceOnUse"
       width="1024"
       height="1024"
       id="seamlesspaper4">
      <image
         id="image4056"
         xlink:href="../textures/seamlesspaper4.jpg"
         height="1024"
         width="1024" />
    </pattern>
    <pattern
       patternUnits="userSpaceOnUse"
       width="1024"
       height="1024"
       id="seamlesspaper5">
      <image
         id="image4059"
         xlink:href="../textures/seamlesspaper5.jpg"
         height="1024"
         width="1024" />
    </pattern>
    <pattern
       patternUnits="userSpaceOnUse"
       width="1024"
       height="1024"
       id="seamlesspaper5_dark">
      <image
         id="image4062"
         xlink:href="../textures/seamlesspaper5_dark.jpg"
         height="1024"
         width="1024" />
    </pattern>
    <pattern
       patternUnits="userSpaceOnUse"
       width="1024"
       height="1024"
       id="seamlesspaper6">
      <image
         id="image4065"
         xlink:href="../textures/seamlesspaper6.jpg"
         height="1024"
         width="1024" />
    </pattern>
    <pattern
       patternUnits="userSpaceOnUse"
       width="1024"
       height="1024"
       id="seamlesspaper6_light">
      <image
         id="image4068"
         xlink:href="../textures/seamlesspaper6_light.jpg"
         height="1024"
         width="1024" />
    </pattern>
    <pattern
       patternUnits="userSpaceOnUse"
       width="1024"
       height="1024"
       id="seamlesstexture1">
      <image
         id="image4071"
         xlink:href="../textures/seamlesstexture1.jpg"
         height="1024"
         width="1024" />
    </pattern>
    <pattern
       patternUnits="userSpaceOnUse"
       width="1024"
       height="1024"
       id="seamlesstexture1_light">
      <image
         id="image4074"
         xlink:href="../textures/seamlesstexture1_light.jpg"
         height="1024"
         width="1024" />
    </pattern>
    <pattern
       patternUnits="userSpaceOnUse"
       width="1024"
       height="1024"
       id="seamlesstexture5">
      <image
         id="image4077"
         xlink:href="../textures/seamlesstexture5.jpg"
         height="1024"
         width="1024" />
    </pattern>
    <pattern
       patternUnits="userSpaceOnUse"
       width="1024"
       height="1024"
       id="seamlesstexture6">
      <image
         id="image4080"
         xlink:href="../textures/seamlesstexture6.jpg"
         height="1024"
         width="1024" />
    </pattern>
    <pattern
       patternUnits="userSpaceOnUse"
       width="1024"
       height="1024"
       id="seamlesstexture7">
      <image
         id="image4083"
         xlink:href="../textures/seamlesstexture7.jpg"
         height="1024"
         width="1024" />
    </pattern>
    <pattern
       patternUnits="userSpaceOnUse"
       width="1024"
       height="1024"
       id="seamlesstexture8">
      <image
         id="image4086"
         xlink:href="../textures/seamlesstexture8.jpg"
         height="1024"
         width="1024" />
    </pattern>
    <pattern
       patternUnits="userSpaceOnUse"
       width="1024"
       height="1024"
       id="seamlesstexture17">
      <image
         id="image4089"
         xlink:href="../textures/seamlesstexture17.jpg"
         height="1024"
         width="1024" />
    </pattern>
    <pattern
       patternUnits="userSpaceOnUse"
       width="1024"
       height="1024"
       id="seamlesstexture18">
      <image
         id="image4092"
         xlink:href="../textures/seamlesstexture18.jpg"
         height="1024"
         width="1024" />
    </pattern>
    <pattern
       patternUnits="userSpaceOnUse"
       width="1024"
       height="1024"
       id="seamlesstexture19">
      <image
         id="image4095"
         xlink:href="../textures/seamlesstexture19.jpg"
         height="1024"
         width="1024" />
    </pattern>
    <pattern
       patternUnits="userSpaceOnUse"
       width="1024"
       height="1024"
       id="seamlesstexture21">
      <image
         id="image4098"
         xlink:href="../textures/seamlesstexture21.jpg"
         height="1024"
         width="1024" />
    </pattern>
    <pattern
       patternUnits="userSpaceOnUse"
       width="1024"
       height="1024"
       id="seamlesstexture21_dark">
      <image
         id="image4101"
         xlink:href="../textures/seamlesstexture21_dark.jpg"
         height="1024"
         width="1024" />
    </pattern>
    <pattern
       patternUnits="userSpaceOnUse"
       width="1024"
       height="1024"
       id="seamlesstexture22">
      <image
         id="image4104"
         xlink:href="../textures/seamlesstexture22.jpg"
         height="1024"
         width="1024" />
    </pattern>
    <pattern
       patternUnits="userSpaceOnUse"
       width="1024"
       height="1024"
       id="seamlesstexture22_light">
      <image
         id="image4107"
         xlink:href="../textures/seamlesstexture22_light.jpg"
         height="1024"
         width="1024" />
    </pattern>
    <pattern
       patternUnits="userSpaceOnUse"
       width="1024"
       height="1024"
       id="seamlesstexture24">
      <image
         id="image4110"
         xlink:href="../textures/seamlesstexture24.jpg"
         height="1024"
         width="1024" />
    </pattern>
    <pattern
       patternUnits="userSpaceOnUse"
       width="1024"
       height="1024"
       id="seamlesstexture26">
      <image
         id="image4113"
         xlink:href="../textures/seamlesstexture26.jpg"
         height="1024"
         width="1024" />
    </pattern>
    <pattern
       patternUnits="userSpaceOnUse"
       width="1024"
       height="1024"
       id="seamlesstexture27">
      <image
         id="image4116"
         xlink:href="../textures/seamlesstexture27.jpg"
         height="1024"
         width="1024" />
    </pattern>
    <pattern
       patternUnits="userSpaceOnUse"
       width="1024"
       height="1024"
       id="seamlesstexture28">
      <image
         id="image4119"
         xlink:href="../textures/seamlesstexture28.jpg"
         height="1024"
         width="1024" />
    </pattern>
  </defs>
  <sodipodi:namedview
     id="base"
     pagecolor="#ffffff"
     bordercolor="#666666"
     borderopacity="1.0"
     inkscape:pageopacity="0.0"
     inkscape:pageshadow="2"
     inkscape:zoom="0.031250001"
     inkscape:cx="15250.949"
     inkscape:cy="6349.1685"
     inkscape:document-units="px"
     inkscape:current-layer="svg2"
     showgrid="false"
     inkscape:window-width="1920"
     inkscape:window-height="1005"
     inkscape:window-x="-9"
     inkscape:window-y="-9"
     inkscape:window-maximized="1" />
  <metadata
     id="metadata7">
    <rdf:RDF>
      <cc:Work
         rdf:about="">
        <dc:format>image/svg+xml</dc:format>
        <dc:type
           rdf:resource="http://purl.org/dc/dcmitype/StillImage" />
        <dc:title />
      </cc:Work>
    </rdf:RDF>
  </metadata>
  <g
     id="frog_attach"
     transform="translate(0,-1000)">
    <path
       inkscape:connector-curvature="0"
       id="frog"
       d="M 200,400 C 294.26857,398.47475 401.43919,294.26992 400,200 398.54293,104.55892 286.78921,-0.38927271 191.42858,3.7907529 97.084464,7.9262207 -1.364469,120.87902 2.8571329,215.21932 6.8834984,305.19667 109.9444,401.45709 200,400 z"
       style="fill:#ff0000;fill-opacity:1;stroke:none"
       sodipodi:nodetypes="aaaaa" />
  </g>
  <g
     id="frog_leap_attach"
     transform="translate(1000,-1000)">
    <path
       inkscape:connector-curvature="0"
       id="frog_leap"
       d="M 200,400 C 294.26857,398.47475 401.43919,294.26992 400,200 398.54293,104.55892 286.78921,-0.38927271 191.42858,3.7907529 97.084464,7.9262207 -1.364469,120.87902 2.8571329,215.21932 6.8834984,305.19667 109.9444,401.45709 200,400 z"
       style="fill:#ff0000;fill-opacity:1;stroke:none"
       sodipodi:nodetypes="aaaaa" />
  </g>
  <g
     id="frog_sit_attach"
     transform="translate(2000,-1000)">
    <path
       inkscape:connector-curvature="0"
       id="frog_sit"
       d="M 200,400 C 294.26857,398.47475 401.43919,294.26992 400,200 398.54293,104.55892 286.78921,-0.38927271 191.42858,3.7907529 97.084464,7.9262207 -1.364469,120.87902 2.8571329,215.21932 6.8834984,305.19667 109.9444,401.45709 200,400 z"
       style="fill:#ff0000;fill-opacity:1;stroke:none"
       sodipodi:nodetypes="aaaaa" />
  </g>
  <g
     id="tree_attach"
     transform="translate(0,-2000)">
    <path
       inkscape:connector-curvature="0"
       id="tree"
       d="M 200,400 C 294.26857,398.47475 401.43919,294.26992 400,200 398.54293,104.55892 286.78921,-0.38927271 191.42858,3.7907529 97.084464,7.9262207 -1.364469,120.87902 2.8571329,215.21932 6.8834984,305.19667 109.9444,401.45709 200,400 z"
       style="fill:#ff0000;fill-opacity:1;stroke:none"
       sodipodi:nodetypes="aaaaa" />
  </g>
  <g
     id="tree_leap_attach"
     transform="translate(1000,-2000)">
    <path
       inkscape:connector-curvature="0"
       id="tree_leap"
       d="M 200,400 C 294.26857,398.47475 401.43919,294.26992 400,200 398.54293,104.55892 286.78921,-0.38927271 191.42858,3.7907529 97.084464,7.9262207 -1.364469,120.87902 2.8571329,215.21932 6.8834984,305.19667 109.9444,401.45709 200,400 z"
       style="fill:#ff0000;fill-opacity:1;stroke:none"
       sodipodi:nodetypes="aaaaa" />
  </g>
  <g
     id="tree_sit_attach"
     transform="translate(2000,-2000)">
    <path
       inkscape:connector-curvature="0"
       id="tree_sit"
       d="M 200,400 C 294.26857,398.47475 401.43919,294.26992 400,200 398.54293,104.55892 286.78921,-0.38927271 191.42858,3.7907529 97.084464,7.9262207 -1.364469,120.87902 2.8571329,215.21932 6.8834984,305.19667 109.9444,401.45709 200,400 z"
       style="fill:#ff0000;fill-opacity:1;stroke:none"
       sodipodi:nodetypes="aaaaa" />
  </g>
  <g
     id="cloud_attach"
     transform="translate(0,-3000)">
    <path
       inkscape:connector-curvature="0"
       id="cloud"
       d="M 200,400 C 294.26857,398.47475 401.43919,294.26992 400,200 398.54293,104.55892 286.78921,-0.38927271 191.42858,3.7907529 97.084464,7.9262207 -1.364469,120.87902 2.8571329,215.21932 6.8834984,305.19667 109.9444,401.45709 200,400 z"
       style="fill:#ff0000;fill-opacity:1;stroke:none"
       sodipodi:nodetypes="aaaaa" />
  </g>
  <g
     id="cloud_leap_attach"
     transform="translate(1000,-3000)">
    <path
       inkscape:connector-curvature="0"
       id="cloud_leap"
       d="M 200,400 C 294.26857,398.47475 401.43919,294.26992 400,200 398.54293,104.55892 286.78921,-0.38927271 191.42858,3.7907529 97.084464,7.9262207 -1.364469,120.87902 2.8571329,215.21932 6.8834984,305.19667 109.9444,401.45709 200,400 z"
       style="fill:#ff0000;fill-opacity:1;stroke:none"
       sodipodi:nodetypes="aaaaa" />
  </g>
  <g
     id="cloud_sit_attach"
     transform="translate(2000,-3000)">
    <path
       inkscape:connector-curvature="0"
       id="cloud_sit"
       d="M 200,400 C 294.26857,398.47475 401.43919,294.26992 400,200 398.54293,104.55892 286.78921,-0.38927271 191.42858,3.7907529 97.084464,7.9262207 -1.364469,120.87902 2.8571329,215.21932 6.8834984,305.19667 109.9444,401.45709 200,400 z"
       style="fill:#ff0000;fill-opacity:1;stroke:none"
       sodipodi:nodetypes="aaaaa" />
  </g>
  <g
     id="blah_attach"
     transform="translate(0,-4000)">
    <path
       inkscape:connector-curvature="0"
       id="blah"
       d="M 200,400 C 294.26857,398.47475 401.43919,294.26992 400,200 398.54293,104.55892 286.78921,-0.38927271 191.42858,3.7907529 97.084464,7.9262207 -1.364469,120.87902 2.8571329,215.21932 6.8834984,305.19667 109.9444,401.45709 200,400 z"
       style="fill:#ff0000;fill-opacity:1;stroke:none"
       sodipodi:nodetypes="aaaaa" />
  </g>
  <g
     id="blah_leap_attach"
     transform="translate(1000,-4000)">
    <path
       inkscape:connector-curvature="0"
       id="blah_leap"
       d="M 200,400 C 294.26857,398.47475 401.43919,294.26992 400,200 398.54293,104.55892 286.78921,-0.38927271 191.42858,3.7907529 97.084464,7.9262207 -1.364469,120.87902 2.8571329,215.21932 6.8834984,305.19667 109.9444,401.45709 200,400 z"
       style="fill:#ff0000;fill-opacity:1;stroke:none"
       sodipodi:nodetypes="aaaaa" />
  </g>
  <g
     id="blah_sit_attach"
     transform="translate(2000,-4000)">
    <path
       inkscape:connector-curvature="0"
       id="blah_sit"
       d="M 200,400 C 294.26857,398.47475 401.43919,294.26992 400,200 398.54293,104.55892 286.78921,-0.38927271 191.42858,3.7907529 97.084464,7.9262207 -1.364469,120.87902 2.8571329,215.21932 6.8834984,305.19667 109.9444,401.45709 200,400 z"
       style="fill:#ff0000;fill-opacity:1;stroke:none"
       sodipodi:nodetypes="aaaaa" />
  </g>
  <g
     id="blar_attach"
     transform="translate(0,-5000)">
    <path
       inkscape:connector-curvature="0"
       id="blar"
       d="M 200,400 C 294.26857,398.47475 401.43919,294.26992 400,200 398.54293,104.55892 286.78921,-0.38927271 191.42858,3.7907529 97.084464,7.9262207 -1.364469,120.87902 2.8571329,215.21932 6.8834984,305.19667 109.9444,401.45709 200,400 z"
       style="fill:#ff0000;fill-opacity:1;stroke:none"
       sodipodi:nodetypes="aaaaa" />
  </g>
  <g
     id="blar_leap_attach"
     transform="translate(1000,-5000)">
    <path
       inkscape:connector-curvature="0"
       id="blar_leap"
       d="M 200,400 C 294.26857,398.47475 401.43919,294.26992 400,200 398.54293,104.55892 286.78921,-0.38927271 191.42858,3.7907529 97.084464,7.9262207 -1.364469,120.87902 2.8571329,215.21932 6.8834984,305.19667 109.9444,401.45709 200,400 z"
       style="fill:#ff0000;fill-opacity:1;stroke:none"
       sodipodi:nodetypes="aaaaa" />
  </g>
  <g
     id="blar_sit_attach"
     transform="translate(2000,-5000)">
    <path
       inkscape:connector-curvature="0"
       id="blar_sit"
       d="M 200,400 C 294.26857,398.47475 401.43919,294.26992 400,200 398.54293,104.55892 286.78921,-0.38927271 191.42858,3.7907529 97.084464,7.9262207 -1.364469,120.87902 2.8571329,215.21932 6.8834984,305.19667 109.9444,401.45709 200,400 z"
       style="fill:#ff0000;fill-opacity:1;stroke:none"
       sodipodi:nodetypes="aaaaa" />
  </g>
  <g
     id="piss_attach"
     transform="translate(3000,-1000)">
    <path
       inkscape:connector-curvature="0"
       id="piss"
       d="M 200,400 C 294.26857,398.47475 401.43919,294.26992 400,200 398.54293,104.55892 286.78921,-0.38927271 191.42858,3.7907529 97.084464,7.9262207 -1.364469,120.87902 2.8571329,215.21932 6.8834984,305.19667 109.9444,401.45709 200,400 z"
       style="fill:#ff0000;fill-opacity:1;stroke:none"
       sodipodi:nodetypes="aaaaa" />
  </g>
  <g
     id="piss_leap_attach"
     transform="translate(4000,-1000)">
    <path
       inkscape:connector-curvature="0"
       id="piss_leap"
       d="M 200,400 C 294.26857,398.47475 401.43919,294.26992 400,200 398.54293,104.55892 286.78921,-0.38927271 191.42858,3.7907529 97.084464,7.9262207 -1.364469,120.87902 2.8571329,215.21932 6.8834984,305.19667 109.9444,401.45709 200,400 z"
       style="fill:#ff0000;fill-opacity:1;stroke:none"
       sodipodi:nodetypes="aaaaa" />
  </g>
  <g
     id="piss_sit_attach"
     transform="translate(5000,-1000)">
    <path
       inkscape:connector-curvature="0"
       id="piss_sit"
       d="M 200,400 C 294.26857,398.47475 401.43919,294.26992 400,200 398.54293,104.55892 286.78921,-0.38927271 191.42858,3.7907529 97.084464,7.9262207 -1.364469,120.87902 2.8571329,215.21932 6.8834984,305.19667 109.9444,401.45709 200,400 z"
       style="fill:#ff0000;fill-opacity:1;stroke:none"
       sodipodi:nodetypes="aaaaa" />
  </g>
  <g
     id="red_attach"
     transform="translate(3000,-2000)">
    <path
       inkscape:connector-curvature="0"
       id="red"
       d="M 200,400 C 294.26857,398.47475 401.43919,294.26992 400,200 398.54293,104.55892 286.78921,-0.38927271 191.42858,3.7907529 97.084464,7.9262207 -1.364469,120.87902 2.8571329,215.21932 6.8834984,305.19667 109.9444,401.45709 200,400 z"
       style="fill:#ff0000;fill-opacity:1;stroke:none"
       sodipodi:nodetypes="aaaaa" />
  </g>
  <g
     id="red_leap_attach"
     transform="translate(4000,-2000)">
    <path
       inkscape:connector-curvature="0"
       id="red_leap"
       d="M 200,400 C 294.26857,398.47475 401.43919,294.26992 400,200 398.54293,104.55892 286.78921,-0.38927271 191.42858,3.7907529 97.084464,7.9262207 -1.364469,120.87902 2.8571329,215.21932 6.8834984,305.19667 109.9444,401.45709 200,400 z"
       style="fill:#ff0000;fill-opacity:1;stroke:none"
       sodipodi:nodetypes="aaaaa" />
  </g>
  <g
     id="red_sit_attach"
     transform="translate(5000,-2000)">
    <path
       inkscape:connector-curvature="0"
       id="red_sit"
       d="M 200,400 C 294.26857,398.47475 401.43919,294.26992 400,200 398.54293,104.55892 286.78921,-0.38927271 191.42858,3.7907529 97.084464,7.9262207 -1.364469,120.87902 2.8571329,215.21932 6.8834984,305.19667 109.9444,401.45709 200,400 z"
       style="fill:#ff0000;fill-opacity:1;stroke:none"
       sodipodi:nodetypes="aaaaa" />
  </g>
  <g
     id="ant_attach"
     transform="translate(3000,-2000)">
    <path
       inkscape:connector-curvature="0"
       id="ant"
       d="M 200,400 C 294.26857,398.47475 401.43919,294.26992 400,200 398.54293,104.55892 286.78921,-0.38927271 191.42858,3.7907529 97.084464,7.9262207 -1.364469,120.87902 2.8571329,215.21932 6.8834984,305.19667 109.9444,401.45709 200,400 z"
       style="fill:#ff0000;fill-opacity:1;stroke:none"
       sodipodi:nodetypes="aaaaa" />
  </g>
  <g
     id="ant_leap_attach"
     transform="translate(4000,-2000)">
    <path
       inkscape:connector-curvature="0"
       id="ant_leap"
       d="M 200,400 C 294.26857,398.47475 401.43919,294.26992 400,200 398.54293,104.55892 286.78921,-0.38927271 191.42858,3.7907529 97.084464,7.9262207 -1.364469,120.87902 2.8571329,215.21932 6.8834984,305.19667 109.9444,401.45709 200,400 z"
       style="fill:#ff0000;fill-opacity:1;stroke:none"
       sodipodi:nodetypes="aaaaa" />
  </g>
  <g
     id="ant_sit_attach"
     transform="translate(5000,-2000)">
    <path
       inkscape:connector-curvature="0"
       id="ant_sit"
       d="M 200,400 C 294.26857,398.47475 401.43919,294.26992 400,200 398.54293,104.55892 286.78921,-0.38927271 191.42858,3.7907529 97.084464,7.9262207 -1.364469,120.87902 2.8571329,215.21932 6.8834984,305.19667 109.9444,401.45709 200,400 z"
       style="fill:#ff0000;fill-opacity:1;stroke:none"
       sodipodi:nodetypes="aaaaa" />
  </g>
  <g
     id="merf_attach"
     transform="translate(3000,-3000)">
    <path
       inkscape:connector-curvature="0"
       id="merf"
       d="M 200,400 C 294.26857,398.47475 401.43919,294.26992 400,200 398.54293,104.55892 286.78921,-0.38927271 191.42858,3.7907529 97.084464,7.9262207 -1.364469,120.87902 2.8571329,215.21932 6.8834984,305.19667 109.9444,401.45709 200,400 z"
       style="fill:#ff0000;fill-opacity:1;stroke:none"
       sodipodi:nodetypes="aaaaa" />
  </g>
  <g
     id="merf_leap_attach"
     transform="translate(4000,-3000)">
    <path
       inkscape:connector-curvature="0"
       id="merf_leap"
       d="M 200,400 C 294.26857,398.47475 401.43919,294.26992 400,200 398.54293,104.55892 286.78921,-0.38927271 191.42858,3.7907529 97.084464,7.9262207 -1.364469,120.87902 2.8571329,215.21932 6.8834984,305.19667 109.9444,401.45709 200,400 z"
       style="fill:#ff0000;fill-opacity:1;stroke:none"
       sodipodi:nodetypes="aaaaa" />
  </g>
  <g
     id="merf_sit_attach"
     transform="translate(5000,-3000)">
    <path
       inkscape:connector-curvature="0"
       id="merf_sit"
       d="M 200,400 C 294.26857,398.47475 401.43919,294.26992 400,200 398.54293,104.55892 286.78921,-0.38927271 191.42858,3.7907529 97.084464,7.9262207 -1.364469,120.87902 2.8571329,215.21932 6.8834984,305.19667 109.9444,401.45709 200,400 z"
       style="fill:#ff0000;fill-opacity:1;stroke:none"
       sodipodi:nodetypes="aaaaa" />
  </g>
  <g
     id="murph_attach"
     transform="translate(3000,-4000)">
    <path
       inkscape:connector-curvature="0"
       id="murph"
       d="M 200,400 C 294.26857,398.47475 401.43919,294.26992 400,200 398.54293,104.55892 286.78921,-0.38927271 191.42858,3.7907529 97.084464,7.9262207 -1.364469,120.87902 2.8571329,215.21932 6.8834984,305.19667 109.9444,401.45709 200,400 z"
       style="fill:#ff0000;fill-opacity:1;stroke:none"
       sodipodi:nodetypes="aaaaa" />
  </g>
  <g
     id="murph_leap_attach"
     transform="translate(4000,-4000)">
    <path
       inkscape:connector-curvature="0"
       id="murph_leap"
       d="M 200,400 C 294.26857,398.47475 401.43919,294.26992 400,200 398.54293,104.55892 286.78921,-0.38927271 191.42858,3.7907529 97.084464,7.9262207 -1.364469,120.87902 2.8571329,215.21932 6.8834984,305.19667 109.9444,401.45709 200,400 z"
       style="fill:#ff0000;fill-opacity:1;stroke:none"
       sodipodi:nodetypes="aaaaa" />
  </g>
  <g
     id="murph_sit_attach"
     transform="translate(5000,-4000)">
    <path
       inkscape:connector-curvature="0"
       id="murph_sit"
       d="M 200,400 C 294.26857,398.47475 401.43919,294.26992 400,200 398.54293,104.55892 286.78921,-0.38927271 191.42858,3.7907529 97.084464,7.9262207 -1.364469,120.87902 2.8571329,215.21932 6.8834984,305.19667 109.9444,401.45709 200,400 z"
       style="fill:#ff0000;fill-opacity:1;stroke:none"
       sodipodi:nodetypes="aaaaa" />
  </g>
  <g
     id="mac_attach"
     transform="translate(3000,-5000)">
    <path
       inkscape:connector-curvature="0"
       id="mac"
       d="M 200,400 C 294.26857,398.47475 401.43919,294.26992 400,200 398.54293,104.55892 286.78921,-0.38927271 191.42858,3.7907529 97.084464,7.9262207 -1.364469,120.87902 2.8571329,215.21932 6.8834984,305.19667 109.9444,401.45709 200,400 z"
       style="fill:#ff0000;fill-opacity:1;stroke:none"
       sodipodi:nodetypes="aaaaa" />
  </g>
  <g
     id="mac_leap_attach"
     transform="translate(4000,-5000)">
    <path
       inkscape:connector-curvature="0"
       id="mac_leap"
       d="M 200,400 C 294.26857,398.47475 401.43919,294.26992 400,200 398.54293,104.55892 286.78921,-0.38927271 191.42858,3.7907529 97.084464,7.9262207 -1.364469,120.87902 2.8571329,215.21932 6.8834984,305.19667 109.9444,401.45709 200,400 z"
       style="fill:#ff0000;fill-opacity:1;stroke:none"
       sodipodi:nodetypes="aaaaa" />
  </g>
  <g
     id="mac_sit_attach"
     transform="translate(5000,-5000)">
    <path
       inkscape:connector-curvature="0"
       id="mac_sit"
       d="M 200,400 C 294.26857,398.47475 401.43919,294.26992 400,200 398.54293,104.55892 286.78921,-0.38927271 191.42858,3.7907529 97.084464,7.9262207 -1.364469,120.87902 2.8571329,215.21932 6.8834984,305.19667 109.9444,401.45709 200,400 z"
       style="fill:#ff0000;fill-opacity:1;stroke:none"
       sodipodi:nodetypes="aaaaa" />
  </g>
  <rect
     style="fill:url(#pattern4133);fill-opacity:1;stroke:none"
     id="rect5617"
     width="50000"
     height="5000"
     x="0"
     y="0" />
  <path
     style="fill:url(#pattern4131);fill-opacity:1;stroke:none"
     d="M 0,5000 0,4432 924,4376 2324,4664 2760,4796 3068,4716 3276,4860 4412,4628 5276,4728 5720,4728 6380,4548 7640,4940 8444,4856 8776,4724 9216,4824 9528,4684 10040,4804 10660,4704 50000,4048 50000,5000 z"
     id="path5653"
     inkscape:connector-curvature="0"
     sodipodi:nodetypes="ccccccccccccccccccccc" />
</svg>
