<?xml version="1.0" encoding="UTF-8" standalone="no"?>
<!-- Created with Inkscape (http://www.inkscape.org/) -->

<svg
   xmlns:dc="http://purl.org/dc/elements/1.1/"
   xmlns:cc="http://creativecommons.org/ns#"
   xmlns:rdf="http://www.w3.org/1999/02/22-rdf-syntax-ns#"
   xmlns:svg="http://www.w3.org/2000/svg"
   xmlns="http://www.w3.org/2000/svg"
   xmlns:xlink="http://www.w3.org/1999/xlink"
   xmlns:sodipodi="http://sodipodi.sourceforge.net/DTD/sodipodi-0.dtd"
   xmlns:inkscape="http://www.inkscape.org/namespaces/inkscape"
   width="50000"
   height="5000"
   id="svg2"
   version="1.1"
   inkscape:version="0.48.4 r9939"
   sodipodi:docname="level.svg">
  <defs
     id="defs4">
    <pattern
       inkscape:collect="always"
       xlink:href="#seamlesstexture22_light"
       id="pattern4133"
       patternTransform="scale(2.6385842,2.6385842)" />
    <pattern
       inkscape:collect="always"
       xlink:href="#seamlesspaper5_dark"
       id="pattern4131"
       patternTransform="scale(2.2489197,2.2489197)" />
    <pattern
       patternUnits="userSpaceOnUse"
       width="1024"
       height="1024"
       id="bookcover1">
      <image
         sodipodi:absref="C:\Users\Matt\GitHub\tgc-demo\content\paths\../textures/bookcover1.jpg"
         xlink:href="../textures/bookcover1.jpg"
         width="1024"
         height="1024"
         id="image2993" />
    </pattern>
    <pattern
       patternUnits="userSpaceOnUse"
       width="1024"
       height="1024"
       id="bookcover2">
      <image
         sodipodi:absref="C:\Users\Matt\GitHub\tgc-demo\content\paths\../textures/bookcover2.jpg"
         xlink:href="../textures/bookcover2.jpg"
         width="1024"
         height="1024"
         id="image4038" />
    </pattern>
    <pattern
       patternUnits="userSpaceOnUse"
       width="1024"
       height="1024"
       id="bookcover2_dark">
      <image
         sodipodi:absref="C:\Users\Matt\GitHub\tgc-demo\content\paths\../textures/bookcover2_dark.jpg"
         xlink:href="../textures/bookcover2_dark.jpg"
         width="1024"
         height="1024"
         id="image4041" />
    </pattern>
    <pattern
       patternUnits="userSpaceOnUse"
       width="1024"
       height="1024"
       id="seamlesspaper1">
      <image
         sodipodi:absref="C:\Users\Matt\GitHub\tgc-demo\content\paths\../textures/seamlesspaper1.jpg"
         xlink:href="../textures/seamlesspaper1.jpg"
         width="1024"
         height="1024"
         id="image4044" />
    </pattern>
    <pattern
       patternUnits="userSpaceOnUse"
       width="1024"
       height="1024"
       id="seamlesspaper2">
      <image
         sodipodi:absref="C:\Users\Matt\GitHub\tgc-demo\content\paths\../textures/seamlesspaper2.jpg"
         xlink:href="../textures/seamlesspaper2.jpg"
         width="1024"
         height="1024"
         id="image4047" />
    </pattern>
    <pattern
       patternUnits="userSpaceOnUse"
       width="1024"
       height="1024"
       id="seamlesspaper2_dark">
      <image
         sodipodi:absref="C:\Users\Matt\GitHub\tgc-demo\content\paths\../textures/seamlesspaper2_dark.jpg"
         xlink:href="../textures/seamlesspaper2_dark.jpg"
         width="1024"
         height="1024"
         id="image4050" />
    </pattern>
    <pattern
       patternUnits="userSpaceOnUse"
       width="1024"
       height="1024"
       id="seamlesspaper3">
      <image
         sodipodi:absref="C:\Users\Matt\GitHub\tgc-demo\content\paths\../textures/seamlesspaper3.jpg"
         xlink:href="../textures/seamlesspaper3.jpg"
         width="1024"
         height="1024"
         id="image4053" />
    </pattern>
    <pattern
       patternUnits="userSpaceOnUse"
       width="1024"
       height="1024"
       id="seamlesspaper4">
      <image
         sodipodi:absref="C:\Users\Matt\GitHub\tgc-demo\content\paths\../textures/seamlesspaper4.jpg"
         xlink:href="../textures/seamlesspaper4.jpg"
         width="1024"
         height="1024"
         id="image4056" />
    </pattern>
    <pattern
       patternUnits="userSpaceOnUse"
       width="1024"
       height="1024"
       id="seamlesspaper5">
      <image
         sodipodi:absref="C:\Users\Matt\GitHub\tgc-demo\content\paths\../textures/seamlesspaper5.jpg"
         xlink:href="../textures/seamlesspaper5.jpg"
         width="1024"
         height="1024"
         id="image4059" />
    </pattern>
    <pattern
       patternUnits="userSpaceOnUse"
       width="1024"
       height="1024"
       id="seamlesspaper5_dark">
      <image
         sodipodi:absref="C:\Users\Matt\GitHub\tgc-demo\content\paths\../textures/seamlesspaper5_dark.jpg"
         xlink:href="../textures/seamlesspaper5_dark.jpg"
         width="1024"
         height="1024"
         id="image4062" />
    </pattern>
    <pattern
       patternUnits="userSpaceOnUse"
       width="1024"
       height="1024"
       id="seamlesspaper6">
      <image
         sodipodi:absref="C:\Users\Matt\GitHub\tgc-demo\content\paths\../textures/seamlesspaper6.jpg"
         xlink:href="../textures/seamlesspaper6.jpg"
         width="1024"
         height="1024"
         id="image4065" />
    </pattern>
    <pattern
       patternUnits="userSpaceOnUse"
       width="1024"
       height="1024"
       id="seamlesspaper6_light">
      <image
         sodipodi:absref="C:\Users\Matt\GitHub\tgc-demo\content\paths\../textures/seamlesspaper6_light.jpg"
         xlink:href="../textures/seamlesspaper6_light.jpg"
         width="1024"
         height="1024"
         id="image4068" />
    </pattern>
    <pattern
       patternUnits="userSpaceOnUse"
       width="1024"
       height="1024"
       id="seamlesstexture1">
      <image
         sodipodi:absref="C:\Users\Matt\GitHub\tgc-demo\content\paths\../textures/seamlesstexture1.jpg"
         xlink:href="../textures/seamlesstexture1.jpg"
         width="1024"
         height="1024"
         id="image4071" />
    </pattern>
    <pattern
       patternUnits="userSpaceOnUse"
       width="1024"
       height="1024"
       id="seamlesstexture1_light">
      <image
         sodipodi:absref="C:\Users\Matt\GitHub\tgc-demo\content\paths\../textures/seamlesstexture1_light.jpg"
         xlink:href="../textures/seamlesstexture1_light.jpg"
         width="1024"
         height="1024"
         id="image4074" />
    </pattern>
    <pattern
       patternUnits="userSpaceOnUse"
       width="1024"
       height="1024"
       id="seamlesstexture5">
      <image
         sodipodi:absref="C:\Users\Matt\GitHub\tgc-demo\content\paths\../textures/seamlesstexture5.jpg"
         xlink:href="../textures/seamlesstexture5.jpg"
         width="1024"
         height="1024"
         id="image4077" />
    </pattern>
    <pattern
       patternUnits="userSpaceOnUse"
       width="1024"
       height="1024"
       id="seamlesstexture6">
      <image
         sodipodi:absref="C:\Users\Matt\GitHub\tgc-demo\content\paths\../textures/seamlesstexture6.jpg"
         xlink:href="../textures/seamlesstexture6.jpg"
         width="1024"
         height="1024"
         id="image4080" />
    </pattern>
    <pattern
       patternUnits="userSpaceOnUse"
       width="1024"
       height="1024"
       id="seamlesstexture7">
      <image
         sodipodi:absref="C:\Users\Matt\GitHub\tgc-demo\content\paths\../textures/seamlesstexture7.jpg"
         xlink:href="../textures/seamlesstexture7.jpg"
         width="1024"
         height="1024"
         id="image4083" />
    </pattern>
    <pattern
       patternUnits="userSpaceOnUse"
       width="1024"
       height="1024"
       id="seamlesstexture8">
      <image
         sodipodi:absref="C:\Users\Matt\GitHub\tgc-demo\content\paths\../textures/seamlesstexture8.jpg"
         xlink:href="../textures/seamlesstexture8.jpg"
         width="1024"
         height="1024"
         id="image4086" />
    </pattern>
    <pattern
       patternUnits="userSpaceOnUse"
       width="1024"
       height="1024"
       id="seamlesstexture17">
      <image
         sodipodi:absref="C:\Users\Matt\GitHub\tgc-demo\content\paths\../textures/seamlesstexture17.jpg"
         xlink:href="../textures/seamlesstexture17.jpg"
         width="1024"
         height="1024"
         id="image4089" />
    </pattern>
    <pattern
       patternUnits="userSpaceOnUse"
       width="1024"
       height="1024"
       id="seamlesstexture18">
      <image
         sodipodi:absref="C:\Users\Matt\GitHub\tgc-demo\content\paths\../textures/seamlesstexture18.jpg"
         xlink:href="../textures/seamlesstexture18.jpg"
         width="1024"
         height="1024"
         id="image4092" />
    </pattern>
    <pattern
       patternUnits="userSpaceOnUse"
       width="1024"
       height="1024"
       id="seamlesstexture19">
      <image
         sodipodi:absref="C:\Users\Matt\GitHub\tgc-demo\content\paths\../textures/seamlesstexture19.jpg"
         xlink:href="../textures/seamlesstexture19.jpg"
         width="1024"
         height="1024"
         id="image4095" />
    </pattern>
    <pattern
       patternUnits="userSpaceOnUse"
       width="1024"
       height="1024"
       id="seamlesstexture21">
      <image
         sodipodi:absref="C:\Users\Matt\GitHub\tgc-demo\content\paths\../textures/seamlesstexture21.jpg"
         xlink:href="../textures/seamlesstexture21.jpg"
         width="1024"
         height="1024"
         id="image4098" />
    </pattern>
    <pattern
       patternUnits="userSpaceOnUse"
       width="1024"
       height="1024"
       id="seamlesstexture21_dark">
      <image
         sodipodi:absref="C:\Users\Matt\GitHub\tgc-demo\content\paths\../textures/seamlesstexture21_dark.jpg"
         xlink:href="../textures/seamlesstexture21_dark.jpg"
         width="1024"
         height="1024"
         id="image4101" />
    </pattern>
    <pattern
       patternUnits="userSpaceOnUse"
       width="1024"
       height="1024"
       id="seamlesstexture22">
      <image
         sodipodi:absref="C:\Users\Matt\GitHub\tgc-demo\content\paths\../textures/seamlesstexture22.jpg"
         xlink:href="../textures/seamlesstexture22.jpg"
         width="1024"
         height="1024"
         id="image4104" />
    </pattern>
    <pattern
       patternUnits="userSpaceOnUse"
       width="1024"
       height="1024"
       id="seamlesstexture22_light">
      <image
         sodipodi:absref="C:\Users\Matt\GitHub\tgc-demo\content\paths\../textures/seamlesstexture22_light.jpg"
         xlink:href="../textures/seamlesstexture22_light.jpg"
         width="1024"
         height="1024"
         id="image4107" />
    </pattern>
    <pattern
       patternUnits="userSpaceOnUse"
       width="1024"
       height="1024"
       id="seamlesstexture24">
      <image
         sodipodi:absref="C:\Users\Matt\GitHub\tgc-demo\content\paths\../textures/seamlesstexture24.jpg"
         xlink:href="../textures/seamlesstexture24.jpg"
         width="1024"
         height="1024"
         id="image4110" />
    </pattern>
    <pattern
       patternUnits="userSpaceOnUse"
       width="1024"
       height="1024"
       id="seamlesstexture26">
      <image
         sodipodi:absref="C:\Users\Matt\GitHub\tgc-demo\content\paths\../textures/seamlesstexture26.jpg"
         xlink:href="../textures/seamlesstexture26.jpg"
         width="1024"
         height="1024"
         id="image4113" />
    </pattern>
    <pattern
       patternUnits="userSpaceOnUse"
       width="1024"
       height="1024"
       id="seamlesstexture27">
      <image
         sodipodi:absref="C:\Users\Matt\GitHub\tgc-demo\content\paths\../textures/seamlesstexture27.jpg"
         xlink:href="../textures/seamlesstexture27.jpg"
         width="1024"
         height="1024"
         id="image4116" />
    </pattern>
    <pattern
       patternUnits="userSpaceOnUse"
       width="1024"
       height="1024"
       id="seamlesstexture28">
      <image
         sodipodi:absref="C:\Users\Matt\GitHub\tgc-demo\content\paths\../textures/seamlesstexture28.jpg"
         xlink:href="../textures/seamlesstexture28.jpg"
         width="1024"
         height="1024"
         id="image4119" />
    </pattern>
    <pattern
       patternUnits="userSpaceOnUse"
       width="1024"
       height="1024"
       id="seamlesstexture1_light-1">
      <image
         width="1024"
         height="1024"
         id="image4074-7"
         xlink:href="C:\Users\Matt\GitHub\tgc-demo\content\paths\../textures/seamlesstexture1_light.jpg" />
    </pattern>
    <pattern
       patternUnits="userSpaceOnUse"
       width="1024"
       height="1024"
       id="seamlesspaper4-1">
      <image
         id="image4056-7"
         height="1024"
         width="1024"
         xlink:href="C:\Users\Matt\GitHub\tgc-demo\content\paths\../textures/seamlesspaper4.jpg"
         sodipodi:absref="C:\Users\Matt\GitHub\tgc-demo\content\paths\../textures/seamlesspaper4.jpg" />
    </pattern>
    <pattern
       patternUnits="userSpaceOnUse"
       width="1024"
       height="1024"
       id="bookcover2_dark-4">
      <image
         id="image4041-0"
         height="1024"
         width="1024"
         xlink:href="C:\Users\Matt\GitHub\tgc-demo\content\paths\../textures/bookcover2_dark.jpg"
         sodipodi:absref="C:\Users\Matt\GitHub\tgc-demo\content\paths\../textures/bookcover2_dark.jpg" />
    </pattern>
    <pattern
       patternUnits="userSpaceOnUse"
       width="1024"
       height="1024"
       id="seamlesstexture1_light-9">
      <image
         width="1024"
         height="1024"
         id="image4074-4"
         xlink:href="C:\Users\Matt\GitHub\tgc-demo\content\paths\../textures/seamlesstexture1_light.jpg"
         sodipodi:absref="C:\Users\Matt\GitHub\tgc-demo\content\paths\../textures/seamlesstexture1_light.jpg" />
    </pattern>
    <pattern
       patternUnits="userSpaceOnUse"
       width="1024"
       height="1024"
       id="seamlesstexture1_light-8">
      <image
         width="1024"
         height="1024"
         id="image4074-8"
         xlink:href="C:\Users\Matt\GitHub\tgc-demo\content\paths\../textures/seamlesstexture1_light.jpg"
         sodipodi:absref="C:\Users\Matt\GitHub\tgc-demo\content\paths\../textures/seamlesstexture1_light.jpg" />
    </pattern>
    <pattern
       patternUnits="userSpaceOnUse"
       width="1024"
       height="1024"
       id="seamlesstexture7-2">
      <image
         width="1024"
         height="1024"
         id="image4083-4"
         xlink:href="C:\Users\Matt\GitHub\tgc-demo\content\paths\../textures/seamlesstexture7.jpg"
         sodipodi:absref="C:\Users\Matt\GitHub\tgc-demo\content\paths\../textures/seamlesstexture7.jpg" />
    </pattern>
    <pattern
       patternUnits="userSpaceOnUse"
       width="1024"
       height="1024"
       id="seamlesspaper2_dark-5">
      <image
         width="1024"
         height="1024"
         id="image4050-5"
         xlink:href="C:\Users\Matt\GitHub\tgc-demo\content\paths\../textures/seamlesspaper2_dark.jpg"
         sodipodi:absref="C:\Users\Matt\GitHub\tgc-demo\content\paths\../textures/seamlesspaper2_dark.jpg" />
    </pattern>
    <pattern
       patternUnits="userSpaceOnUse"
       width="1024"
       height="1024"
       id="pattern5516">
      <image
         width="1024"
         height="1024"
         id="image5518"
         xlink:href="C:\Users\Matt\GitHub\tgc-demo\content\paths\../textures/seamlesspaper2_dark.jpg"
         sodipodi:absref="C:\Users\Matt\GitHub\tgc-demo\content\paths\../textures/seamlesspaper2_dark.jpg" />
    </pattern>
    <pattern
       patternUnits="userSpaceOnUse"
       width="1024"
       height="1024"
       id="seamlesstexture1_light-17">
      <image
         width="1024"
         height="1024"
         id="image4074-1"
         xlink:href="C:\Users\Matt\GitHub\tgc-demo\content\paths\../textures/seamlesstexture1_light.jpg"
         sodipodi:absref="C:\Users\Matt\GitHub\tgc-demo\content\paths\../textures/seamlesstexture1_light.jpg" />
    </pattern>
    <pattern
       patternUnits="userSpaceOnUse"
       width="1024"
       height="1024"
       id="seamlesspaper4-5">
      <image
         width="1024"
         height="1024"
         id="image4056-2"
         xlink:href="C:\Users\Matt\GitHub\tgc-demo\content\paths\../textures/seamlesspaper4.jpg"
         sodipodi:absref="C:\Users\Matt\GitHub\tgc-demo\content\paths\../textures/seamlesspaper4.jpg" />
    </pattern>
    <pattern
       patternUnits="userSpaceOnUse"
       width="1024"
       height="1024"
       id="bookcover2_dark-7">
      <image
         width="1024"
         height="1024"
         id="image4041-6"
         xlink:href="C:\Users\Matt\GitHub\tgc-demo\content\paths\../textures/bookcover2_dark.jpg"
         sodipodi:absref="C:\Users\Matt\GitHub\tgc-demo\content\paths\../textures/bookcover2_dark.jpg" />
    </pattern>
    <pattern
       patternUnits="userSpaceOnUse"
       width="1024"
       height="1024"
       id="seamlesstexture1_light-4">
      <image
         width="1024"
         height="1024"
         id="image4074-2"
         xlink:href="C:\Users\Matt\GitHub\tgc-demo\content\paths\../textures/seamlesstexture1_light.jpg"
         sodipodi:absref="C:\Users\Matt\GitHub\tgc-demo\content\paths\../textures/seamlesstexture1_light.jpg" />
    </pattern>
    <pattern
       patternUnits="userSpaceOnUse"
       width="1024"
       height="1024"
       id="seamlesspaper4-2">
      <image
         width="1024"
         height="1024"
         id="image4056-21"
         xlink:href="C:\Users\Matt\GitHub\tgc-demo\content\paths\../textures/seamlesspaper4.jpg"
         sodipodi:absref="C:\Users\Matt\GitHub\tgc-demo\content\paths\../textures/seamlesspaper4.jpg" />
    </pattern>
    <pattern
       patternUnits="userSpaceOnUse"
       width="1024"
       height="1024"
       id="bookcover2_dark-6">
      <image
         width="1024"
         height="1024"
         id="image4041-8"
         xlink:href="C:\Users\Matt\GitHub\tgc-demo\content\paths\../textures/bookcover2_dark.jpg"
         sodipodi:absref="C:\Users\Matt\GitHub\tgc-demo\content\paths\../textures/bookcover2_dark.jpg" />
    </pattern>
    <pattern
       patternUnits="userSpaceOnUse"
       width="1024"
       height="1024"
       id="seamlesspaper4-7">
      <image
         width="1024"
         height="1024"
         id="image4056-6"
         xlink:href="C:\Users\Matt\GitHub\tgc-demo\content\paths\../textures/seamlesspaper4.jpg"
         sodipodi:absref="C:\Users\Matt\GitHub\tgc-demo\content\paths\../textures/seamlesspaper4.jpg" />
    </pattern>
    <pattern
       patternUnits="userSpaceOnUse"
       width="1024"
       height="1024"
       id="bookcover2_dark-1">
      <image
         width="1024"
         height="1024"
         id="image4041-89"
         xlink:href="C:\Users\Matt\GitHub\tgc-demo\content\paths\../textures/bookcover2_dark.jpg"
         sodipodi:absref="C:\Users\Matt\GitHub\tgc-demo\content\paths\../textures/bookcover2_dark.jpg" />
    </pattern>
    <pattern
       patternUnits="userSpaceOnUse"
       width="1024"
       height="1024"
       id="seamlesspaper4-79">
      <image
         width="1024"
         height="1024"
         id="image4056-5"
         xlink:href="C:\Users\Matt\GitHub\tgc-demo\content\paths\../textures/seamlesspaper4.jpg"
         sodipodi:absref="C:\Users\Matt\GitHub\tgc-demo\content\paths\../textures/seamlesspaper4.jpg" />
    </pattern>
    <pattern
       patternUnits="userSpaceOnUse"
       width="1024"
       height="1024"
       id="bookcover2_dark-43">
      <image
         width="1024"
         height="1024"
         id="image4041-1"
         xlink:href="C:\Users\Matt\GitHub\tgc-demo\content\paths\../textures/bookcover2_dark.jpg"
         sodipodi:absref="C:\Users\Matt\GitHub\tgc-demo\content\paths\../textures/bookcover2_dark.jpg" />
    </pattern>
    <pattern
       patternUnits="userSpaceOnUse"
       width="1024"
       height="1024"
       id="seamlesstexture7-3">
      <image
         width="1024"
         height="1024"
         id="image4083-3"
         xlink:href="C:\Users\Matt\GitHub\tgc-demo\content\paths\../textures/seamlesstexture7.jpg"
         sodipodi:absref="C:\Users\Matt\GitHub\tgc-demo\content\paths\../textures/seamlesstexture7.jpg" />
    </pattern>
    <pattern
       patternUnits="userSpaceOnUse"
       width="1024"
       height="1024"
       id="seamlesspaper2_dark-4">
      <image
         width="1024"
         height="1024"
         id="image4050-1"
         xlink:href="C:\Users\Matt\GitHub\tgc-demo\content\paths\../textures/seamlesspaper2_dark.jpg"
         sodipodi:absref="C:\Users\Matt\GitHub\tgc-demo\content\paths\../textures/seamlesspaper2_dark.jpg" />
    </pattern>
    <pattern
       patternUnits="userSpaceOnUse"
       width="1024"
       height="1024"
       id="pattern5722">
      <image
         width="1024"
         height="1024"
         id="image5724"
         xlink:href="C:\Users\Matt\GitHub\tgc-demo\content\paths\../textures/seamlesspaper2_dark.jpg"
         sodipodi:absref="C:\Users\Matt\GitHub\tgc-demo\content\paths\../textures/seamlesspaper2_dark.jpg" />
    </pattern>
    <pattern
       patternUnits="userSpaceOnUse"
       width="1024"
       height="1024"
       id="seamlesstexture1_light-3">
      <image
         width="1024"
         height="1024"
         id="image4074-87"
         xlink:href="C:\Users\Matt\GitHub\tgc-demo\content\paths\../textures/seamlesstexture1_light.jpg"
         sodipodi:absref="C:\Users\Matt\GitHub\tgc-demo\content\paths\../textures/seamlesstexture1_light.jpg" />
    </pattern>
    <pattern
       patternUnits="userSpaceOnUse"
       width="1024"
       height="1024"
       id="seamlesstexture1_light-2">
      <image
         width="1024"
         height="1024"
         id="image4074-77"
         xlink:href="C:\Users\Matt\GitHub\tgc-demo\content\paths\../textures/seamlesstexture1_light.jpg"
         sodipodi:absref="C:\Users\Matt\GitHub\tgc-demo\content\paths\../textures/seamlesstexture1_light.jpg" />
    </pattern>
    <pattern
       patternUnits="userSpaceOnUse"
       width="1024"
       height="1024"
       id="seamlesstexture1_light-31">
      <image
         width="1024"
         height="1024"
         id="image4074-9"
         xlink:href="C:\Users\Matt\GitHub\tgc-demo\content\paths\../textures/seamlesstexture1_light.jpg"
         sodipodi:absref="C:\Users\Matt\GitHub\tgc-demo\content\paths\../textures/seamlesstexture1_light.jpg" />
    </pattern>
  </defs>
  <sodipodi:namedview
     id="base"
     pagecolor="#ffffff"
     bordercolor="#666666"
     borderopacity="1.0"
     inkscape:pageopacity="0.0"
     inkscape:pageshadow="2"
     inkscape:zoom="0.13781085"
     inkscape:cx="5404.798"
     inkscape:cy="2454.654"
     inkscape:document-units="px"
     inkscape:current-layer="svg2"
     showgrid="false"
     inkscape:window-width="1920"
     inkscape:window-height="1005"
     inkscape:window-x="-9"
     inkscape:window-y="-9"
     inkscape:window-maximized="1" />
  <metadata
     id="metadata7">
    <rdf:RDF>
      <cc:Work
         rdf:about="">
        <dc:format>image/svg+xml</dc:format>
        <dc:type
           rdf:resource="http://purl.org/dc/dcmitype/StillImage" />
        <dc:title />
      </cc:Work>
    </rdf:RDF>
  </metadata>
  <g
     id="big_cloud1_attach"
     transform="translate(0,-2000)">
    <rect
       style="fill:none;fill-opacity:1;stroke:#000000;stroke-opacity:1;stroke-width:5;stroke-miterlimit:4;stroke-dasharray:none"
       id="big_cloud1_guide"
       width="1000"
       height="1000"
       x="0"
       y="0" />
    <path
       inkscape:connector-curvature="0"
       id="big_cloud1"
       d="M 423.05214,504.48247 C 408.00167,504.88882 392.5744,504.04818 378.1263,499.81336 362.89315,495.34825 348.21624,488.01667 335.59654,478.3875 328.96844,473.32985 321.4787,468.08398 318.84484,459.81405 307.29311,470.39635 292.12101,479.71507 276.73704,485.53097 256.91012,493.02664 235.25258,498.15129 214.11448,496.57824 193.72589,495.06146 173.78277,487.10804 155.95462,477.10029 142.55106,469.57603 129.74337,459.81405 120.68118,447.39895 112.97911,436.8466 107.22646,420.02034 105.77732,411.1512 97.09281,412.90166 72.877007,416.84104 57.124352,412.93938 42.700311,409.36709 27.685589,402.37116 18.488725,390.69932 6.0417654,374.90267 2.2023905,352.9174 1.4550333,332.82009 0.7722601,314.46019 3.2470124,294.47618 13.045984,278.93487 22.485437,263.96378 39.291769,251.37468 55.070157,246.48325 41.801789,228.38878 33.899272,205.30111 34.345335,183.06645 34.802858,160.26048 43.599869,136.45569 58.194371,118.92511 78.608396,94.4042 109.31752,77.15125 140.37835,69.8552 160.05837,65.23247 176.71228,67.45391 200.84642,74.5107 202.80761,59.62792 228.35069,35.978063 248.92671,26.528413 288.77525,8.227728 337.85158,4.674306 380.09022,16.45228 406.00414,23.67824 426.58478,39.698581 445.75086,63.38189 451.24047,53.23549 465.25878,39.910633 477.7348,31.47809 495.46694,19.492946 515.72375,10.1528 536.75876,6.20318 571.76433,-0.36962 609.90136,-1.904399 643.55112,9.769651 672.09127,19.671024 699.35987,38.64176 716.53967,63.48991 722.93955,72.74637 725.63978,80.95252 725.65984,95.99508 737.53045,88.63023 776.63534,83.55263 802.51964,84.53714 824.81914,85.38531 848.29642,88.55304 867.79292,99.40923 886.7227,109.94965 906.65395,125.10341 913.44433,145.67803 919.35451,163.58385 913.68795,189.17137 905.4898,201.68358 924.9504,200.0746 939.64842,204.8058 954.84842,211.97683 969.76047,219.01191 985.82774,228.29795 993.43403,242.92693 1003.0895,261.4969 1003.05,285.4178 997.46104,305.58784 992.06619,325.05761 983.0939,340.02361 962.99852,355.4468 969.03588,381.99876 968.31941,393.28154 963.02957,411.04252 956.0425,434.50205 943.32199,459.11908 922.817,472.4873 903.49681,485.0836 877.36112,487.24845 854.55738,483.79785 828.06383,479.78899 794.30966,464.3376 782.69155,447.78265 779.75587,460.47099 770.27303,471.3549 760.13876,479.41779 746.171,490.53056 728.1814,496.46992 710.66615,499.90613 686.73122,504.60162 661.50913,503.79012 637.49366,499.52576 620.11953,496.44033 602.53573,491.10952 587.6982,481.55832 573.23122,472.24555 558.05473,457.60449 551.64884,444.61703 547.577,453.56938 534.56131,466.32059 523.48034,474.25732 509.39814,484.34386 492.86845,490.99192 476.29439,496.02596 459.10012,501.2485 441.01552,503.99788 423.05214,504.48247 z"
       style="fill:url(#seamlesstexture1_light);fill-opacity:1.0;stroke:none"
       sodipodi:nodetypes="aaacaaaacaaaacaaacaacaaaacaaacaaacaaacaaaacaaa" />
  </g>
  <g
     id="big_cloud2_attach"
     transform="translate(2000,-2000)">
    <rect
       style="fill:none;fill-opacity:1;stroke:#000000;stroke-opacity:1;stroke-width:5;stroke-miterlimit:4;stroke-dasharray:none"
       id="big_cloud2_guide"
       width="1000"
       height="1000"
       x="0"
       y="0" />
    <path
       inkscape:connector-curvature="0"
       id="big_cloud2"
       d="M 440.22239,547.9983 C 422.01016,547.21505 403.09517,546.34115 386.20017,539.49588 369.43045,532.70134 354.1595,521.47063 341.8267,508.23084 332.21748,497.91482 324.35514,486.46065 319.97684,472.01776 312.24418,489.5819 298.18672,498.83152 283.41509,506.95034 264.75348,517.20721 242.69399,522.49943 221.40048,522.2901 200.73858,522.0869 179.59583,516.25352 161.52966,506.22513 145.53856,497.34859 130.41547,484.70267 121.43291,468.77091 113.9753,455.54383 107.58542,437.47322 112.05645,424.19261 97.76716,422.46872 84.513128,419.16338 72.89019,411.95238 57.518753,402.41579 42.254661,389.46613 35.381238,372.73342 27.544834,353.65642 27.775358,330.41275 34.365959,310.87035 40.992377,291.22176 55.943479,274.00329 72.846965,261.99293 89.888004,249.88482 111.34354,238.42822 132.1431,241.57242 127.38075,219.462 138.63637,202.53602 148.9343,186.24464 159.71303,169.19264 175.8001,154.8176 193.70497,145.5242 219.77834,131.99101 250.41014,124.36067 279.7199,126.33709 304.26586,127.99229 328.72942,133.36516 348.94519,151.93115 347.45063,124.84857 361.00993,107.39841 377.31924,92.87214 400.04073,72.63473 433.25375,65.22754 463.60582,63.08974 493.02347,61.01775 529.59906,62.64174 550.45643,79.94769 554.01124,58.01944 568.51849,46.346681 582.84355,34.463654 599.22964,20.870969 620.14157,12.73147 640.82041,7.666961 663.88298,2.018676 688.56047,0.3347 711.97281,4.290502 730.76871,7.466293 749.86858,14.068817 765.03383,25.618069 776.7308,34.525986 791.74995,44.328145 791.77179,60.69812 808.3187,45.425704 831.75428,42.68874 853.05405,42.596105 883.65341,42.463044 917.25113,48.933677 941.31527,67.83485 958.56925,81.38694 973.37363,103.09535 973.88868,125.02917 974.30371,142.70121 967.22524,158.67537 949.83641,172.29171 968.59514,174.16956 982.37934,187.1894 993.28678,200.59973 1006.686,217.07365 1014.8048,238.77023 1016.4602,259.94068 1018.0014,279.64968 1013.7062,300.79619 1003.7361,317.86715 995.6627,331.69068 987.3926,342.78014 967.94312,349.88748 984.19013,367.89599 988.67362,384.39276 988.50472,403.54659 988.28189,428.8109 976.38976,454.48896 960.13942,473.83478 946.12964,490.51315 926.19905,505.05172 904.67344,508.38181 879.82834,512.22549 845.45078,502.28884 831.59781,489.71626 826.28621,504.43151 813.61296,522.08668 800.2123,534.40695 786.85979,546.68301 770.54023,556.4611 753.2166,561.83516 732.71167,568.19631 710.09929,570.42763 688.98285,566.55319 663.19235,561.82106 638.91523,548.70654 617.68685,533.31498 602.19456,522.08241 586.63707,506.74637 578.45634,491.40323 570.39631,504.7744 555.50516,517.80268 540.95953,527.08046 528.03397,535.32494 513.11578,540.54314 498.16294,543.92744 479.27943,548.20141 459.56564,548.83025 440.22239,547.9983 z"
       style="fill:url(#seamlesstexture1_light);fill-opacity:1.0;stroke:none"
       sodipodi:nodetypes="aaacaaaacaaaacaaacaacaaaacaaacaaacaaacaaaacaaa" />
  </g>
  <g
     id="big_cloud3_attach"
     transform="translate(4000,-2000)">
    <rect
       style="fill:none;fill-opacity:1;stroke:#000000;stroke-opacity:1;stroke-width:5;stroke-miterlimit:4;stroke-dasharray:none"
       id="big_cloud3_guide"
       width="1000"
       height="1000"
       x="0"
       y="0" />
    <path
       inkscape:connector-curvature="0"
       id="big_cloud3"
       d="M 429.82084,561.89277 C 406.29872,561.75446 382.72576,555.56481 360.8728,546.861 337.90394,537.71257 314.90174,525.959 297.3861,508.51021 283.6056,494.78219 271.99945,475.51735 267.02287,458.67735 253.86425,468.0643 224.26429,478.44312 201.46619,478.18847 180.97508,477.95963 161.31457,468.43232 142.9497,459.34001 127.40804,451.64545 112.10053,442.28243 100.2414,429.62895 87.09854,415.60574 76.028107,398.65641 70.447634,380.26501 65.141012,362.77615 64.961952,339.66396 67.917086,325.49474 51.532485,321.35706 28.83331,307.72917 16.843346,291.06131 4.448572,273.83072 0.777861,250.89128 -0.11559,229.68454 -0.948789,209.90792 1.607625,188.83423 10.829284,171.31938 20.409407,153.12369 36.166437,137.16772 54.385049,127.63125 74.203138,117.25755 98.15475,113.84747 120.43707,115.77952 115.68096,93.6981 117.64103,79.69159 126.95583,65.6495 143.05959,41.37306 174.24167,28.962292 202.41907,21.565633 230.66889,14.149973 261.67624,15.895201 290.02962,22.904519 309.53557,27.726645 323.29725,34.34982 343.78853,50.17343 357.09421,32.790539 371.13289,21.360626 389.20941,15.109488 415.28103,6.093526 444.94129,8.87017 471.96606,14.408994 496.79627,19.498021 522.29878,31.55488 541.61876,44.91206 552.71907,31.77073 568.06276,20.420845 584.21386,13.154889 603.78216,4.3516 625.80381,1.014894 647.23995,0.06055 667.05336,-0.821554 687.29322,1.410555 706.34017,6.938937 724.56423,12.22847 742.91965,19.659592 757.62325,31.655348 769.00067,40.93746 776.75421,50.94491 784.32619,66.68941 800.85141,55.6651 829.75122,45.82508 854.07008,45.19432 881.42658,44.48477 912.3768,48.08963 933.67361,65.27477 952.68258,80.61381 966.33574,106.51048 966.20432,130.93612 966.1093,148.5896 958.03959,166.04823 942.18357,178.13669 956.68957,181.52211 974.68382,193.01485 985.5769,206.4076 998.9586,222.85992 1007.0667,244.52806 1008.72,265.67075 1010.2592,285.35391 1007.7836,307.67072 996.0126,323.52127 984.3749,339.19239 965.52289,346.79683 944.8909,352.08281 951.15039,366.44365 955.04934,391.36883 951.75828,410.79678 948.36548,430.82534 939.66857,451.42093 925.13857,465.6172 909.27303,481.11843 886.68716,491.03912 864.62013,493.28535 849.6698,494.80723 831.4979,489.70225 820.68316,483.18633 815.37855,497.88224 803.86594,514.36339 791.04718,526.10999 774.88054,540.92437 755.14134,553.33149 733.8627,558.62747 710.33947,564.48209 684.84351,561.72467 661.1712,556.50565 640.79566,552.01355 620.67801,543.89072 603.63582,531.85306 590.6558,522.68476 578.25238,509.43488 571.29038,496.82987 563.24091,510.18351 548.36928,523.19471 533.84273,532.46034 520.93411,540.6939 505.7784,544.92221 491.10225,549.28525 471.11194,555.22793 450.67543,562.01533 429.82084,561.89277 z"
       style="fill:url(#seamlesstexture1_light);fill-opacity:1.0;stroke:none"
       sodipodi:nodetypes="aaacaaaacaaaacaaacaacaaaacaaacaaacaaacaaaacaaa" />
  </g>
  <g
     id="medium_cloud1_attach"
     transform="translate(0,-4000)">
    <rect
       style="fill:none;fill-opacity:1;stroke:#000000;stroke-opacity:1;stroke-width:5;stroke-miterlimit:4;stroke-dasharray:none"
       id="medium_cloud1_guide"
       width="1000"
       height="1000"
       x="0"
       y="0" />
    <path
       inkscape:connector-curvature="0"
       id="medium_cloud1"
       d="M 463.65627,517.72783 C 444.97478,514.59559 427.17583,506.60563 410.51875,497.58621 398.27475,490.95636 386.43833,482.99075 376.77236,472.96883 370.75064,466.72527 365.02557,460.25707 362.20623,451.40479 349.2461,463.92209 334.77917,473.60333 318.81572,480.61536 296.72255,490.31981 272.54012,496.85487 248.41787,497.48852 225.61144,498.08761 201.81292,494.64683 181.11435,485.05201 168.33652,479.12872 156.51176,469.82358 148.40476,458.3069 141.18943,448.05691 134.69074,434.74513 135.8166,422.8718 122.05876,429.20728 92.046848,432.66185 71.381557,426.67267 49.220303,420.24994 27.406899,405.84029 15.170119,386.27925 2.2332256,365.59906 -2.5122907,337.97353 2.766295,314.15819 6.8288782,295.82908 20.784107,280.29248 34.872259,267.88342 52.777384,252.11231 68.804514,241.06817 98.364821,234.8291 97.249868,209.21392 103.36326,186.12886 114.88104,165.2637 127.33522,142.7022 146.21377,122.07735 169.01433,110.06642 198.1278,94.72996 233.3977,90.75181 266.23201,92.92195 291.9264,94.62019 315.81421,101.58266 339.8819,116.23435 345.26526,87.36606 362.09712,60.31425 384.21402,41.700646 408.35422,21.384222 441.29103,11.537461 472.63407,7.915285 506.89744,3.955624 543.19789,8.885407 575.16859,21.828706 605.14174,33.963264 634.90749,52.73407 653.29717,79.33208 660.14774,89.24041 663.03813,98.02444 663.05963,114.12634 675.76618,106.24284 717.52101,100.67281 745.33207,100.17887 781.27033,99.5406 819.8335,98.82444 852.21993,114.41567 880.26897,127.91882 907.72934,150.30658 919.5952,179.08651 929.13897,202.23442 926.57776,234.54 917.81103,254.17981 945.37265,255.82277 967.78663,266.30781 983.00141,284.89667 997.37025,302.45207 1003.2379,328.64587 999.26898,350.98204 995.89349,369.97851 982.05994,387.02194 966.91804,398.97951 951.25952,411.34507 934.79704,419.61969 910.87973,420.01714 910.19275,441.61267 901.84345,461.8733 888.4214,477.43694 875.13458,492.8437 855.02263,502.17773 835.46479,507.78128 810.34827,514.97753 783.02654,514.27157 757.13928,510.73938 738.0767,508.13836 717.9027,504.24115 702.15448,493.18915 685.64377,481.60222 671.51117,461.51498 665.24911,445.23332 658.80834,457.79059 636.91757,479.2685 618.27056,490.422 594.99568,504.34364 567.56424,510.78869 540.83955,515.40626 515.47598,519.78867 489.04132,521.98408 463.65627,517.72783 z"
       style="fill:url(#seamlesstexture1_light);fill-opacity:1.0;stroke:none"
       sodipodi:nodetypes="aaacaaaacaaaacaaacaaaacaaacaaacaaaacaaa" />
  </g>
  <g
     id="medium_cloud2_attach"
     transform="translate(2000,-4000)">
    <rect
       style="fill:none;fill-opacity:1;stroke:#000000;stroke-opacity:1;stroke-width:5;stroke-miterlimit:4;stroke-dasharray:none"
       id="medium_cloud2_guide"
       width="1000"
       height="1000"
       x="0"
       y="0" />
    <path
       inkscape:connector-curvature="0"
       id="medium_cloud2"
       d="M 468.46597,693.97331 C 441.08332,692.50462 413.07833,688.10879 387.93583,677.16242 370.07309,669.3856 352.1665,658.80408 340.21321,643.4198 333.16684,634.35081 329.41853,624.27075 327.89103,611.24466 307.08376,622.97776 295.12451,625.87804 277.57769,628.11367 256.28991,630.82582 234.25281,628.49092 213.35599,623.6074 189.48062,618.02779 164.24682,611.26354 145.29822,595.70346 127.77263,581.31191 115.41301,560.31842 107.73891,538.97896 101.61211,521.94215 99.088896,500.63902 102.01499,484.96646 79.853129,483.02242 60.065568,477.39192 44.207199,464.49264 24.886642,448.77719 10.620915,424.98063 5.4443304,400.61957 -0.31963285,373.49436 4.0369811,343.13233 15.956464,318.09386 25.496044,298.05469 43.848467,282.80691 61.918027,269.9204 82.255479,255.41654 94.265024,250.16578 130.03081,238.67282 116.94444,210.18689 118.0125,196.00841 123.44601,175.56974 130.59657,148.67219 149.06785,123.25755 172.20698,107.79181 196.20026,91.755146 227.62443,87.521798 256.48041,87.950991 284.55549,88.368566 304.72161,92.394355 337.86284,109.68484 347.49518,74.889148 356.77213,57.597938 376.6508,39.905432 400.03985,19.088609 432.59701,9.1882526 463.49165,4.0981752 493.6217,-0.86591715 525.3642,2.289241 554.9098,10.004143 581.58613,16.969822 607.26136,29.436846 629.51991,45.706577 649.7458,60.490556 665.15411,79.384573 681.01061,100.45678 692.998,88.732492 715.46189,84.383753 734.00901,81.71437 762.97831,77.545004 793.86144,77.373016 821.68412,86.456049 849.87157,95.658187 879.96599,110.19692 896.23359,134.98771 912.8741,160.34686 914.15942,201.70507 911.42316,224.7051 936.02407,232.00036 953.8524,242.84898 968.64716,259.58663 985.51196,278.66613 998.77583,303.77494 1000.1003,329.20511 1001.702,359.95641 988.71492,391.6874 971.01717,416.88655 956.55952,437.47216 942.71129,449.44255 911.70215,463.54321 922.8104,484.56879 925.83448,506.05336 924.69153,527.9124 923.2479,555.52189 916.29812,584.80501 899.89546,607.06079 883.34572,629.51605 857.65464,646.29838 831.02279,654.59764 796.44009,665.37455 756.4774,666.75605 722.35389,654.60329 702.25594,647.44549 684.56746,632.63079 672.76098,614.14338 664.10593,631.01771 639.97132,648.10277 620.00078,660.18677 600.1612,672.19164 577.71492,680.00195 555.16181,685.39472 526.91829,692.14835 497.46403,695.52857 468.46597,693.97331 z"
       style="fill:url(#seamlesstexture1_light);fill-opacity:1.0;stroke:none"
       sodipodi:nodetypes="aaacaaaacaaaacaaacaaaacaaacaaacaaaacaaa" />
  </g>
  <g
     id="medium_cloud3_attach"
     transform="translate(4000,-4000)">
    <rect
       style="fill:none;fill-opacity:1;stroke:#000000;stroke-opacity:1;stroke-width:5;stroke-miterlimit:4;stroke-dasharray:none"
       id="medium_cloud3_guide"
       width="1000"
       height="1000"
       x="0"
       y="0" />
    <path
       inkscape:connector-curvature="0"
       id="medium_cloud3"
       d="M 532.11791,554.07011 C 508.29799,552.35645 484.43923,547.02792 462.25861,538.17664 446.63795,531.94314 430.90403,524.17311 418.87086,512.42325 409.73383,503.501 402.50196,492.27517 398.53686,479.95277 384.49883,493.51112 368.26338,502.82244 351.53758,511.5927 330.61382,522.56431 308.94946,534.23057 285.54349,537.44557 256.89278,541.38078 226.77955,537.52001 199.221,528.75224 174.26358,520.81183 148.16955,509.66844 130.86852,490.00643 114.68629,471.6159 105.48275,443.63042 103.05708,421.98285 77.844965,419.82396 62.719021,414.11631 46.150569,402.90223 28.434359,390.91131 13.710393,373.34795 4.595397,353.9943 -6.3019357,330.85631 -9.5080817,304.01953 -8.8400571,278.45248 -8.1962088,253.81078 -3.7237137,228.16115 7.893574,206.42024 18.656913,186.27742 29.182884,172.21975 54.75793,156.4405 43.240206,129.98366 41.580982,110.88854 46.872693,88.821904 53.656774,60.532009 70.980199,32.265704 95.19818,16.146352 122.40761,-1.9640752 158.91499,-5.2263591 191.4801,-2.4240016 221.18547,0.1322644 250.34104,9.534503 275.12166,29.271062 301.03902,13.623216 331.6579,4.920422 361.80353,1.3774163 392.74913,-2.2596413 424.45769,2.432752 454.99989,8.599807 475.93623,12.827257 497.19057,18.343798 515.8007,28.825424 533.32476,38.695338 550.62591,51.167409 561.76448,67.913717 570.563,81.141818 574.89316,94.6045 576.20517,113.33433 602.85602,104.79517 627.78264,102.89238 653.72138,104.67062 686.80883,106.93896 720.35803,114.57643 750.16766,129.11277 772.45535,139.9811 795.89353,153.60792 808.97019,174.67591 817.54828,188.49619 820.32157,202.36618 818.63645,222.50702 845.53536,215.34354 872.72178,213.75995 898.26995,220.98219 928.55492,229.54348 960.44456,245.65743 977.75071,271.94374 991.95889,293.52444 997.2356,323.50411 990.39318,348.41951 984.194,370.99236 966.28814,389.57383 945.1593,402.13693 957.14634,425.98421 960.8216,443.10861 955.62946,463.04356 950.54713,482.55697 934.5257,499.12808 917.59983,510.08801 897.14999,523.32981 871.27731,527.72879 846.93636,528.75727 820.26129,529.88422 791.70594,527.27541 768.04717,514.90241 750.73264,505.84732 735.38907,489.99253 726.78358,473.26802 714.65212,493.31348 695.7621,509.5928 675.89788,522.21503 655.70632,535.0455 632.21608,542.61702 608.88581,547.91024 583.8506,553.59049 557.72328,555.91219 532.11791,554.07011 z"
       style="fill:url(#seamlesstexture1_light);fill-opacity:1.0;stroke:none"
       sodipodi:nodetypes="aaacaaaacaaaacaaacaaaacaaacaaacaaaacaaa" />
  </g>
  <g
     id="small_cloud1_attach"
     transform="translate(0,-6000)">
    <rect
       style="fill:none;fill-opacity:1;stroke:#000000;stroke-opacity:1;stroke-width:5;stroke-miterlimit:4;stroke-dasharray:none"
       id="small_cloud1_guide"
       width="1000"
       height="1000"
       x="0"
       y="0" />
    <path
       inkscape:connector-curvature="0"
       id="small_cloud1"
       d="M 472.14202,703.9032 C 441.7478,697.43853 409.66034,690.76276 384.42378,673.89186 366.757,662.0814 348.65923,640.75803 343.73714,626.65061 322.48049,634.96737 287.29409,635.81325 259.14412,633.1684 224.96413,629.95698 190.05972,622.09596 160.28994,606.31598 130.85713,590.71459 103.68981,568.69124 86.307386,541.84243 71.359463,518.75396 65.407712,490.79409 63.617611,463.9711 62.213659,442.93424 65.678664,418.28437 73.157989,401.3538 46.255085,388.13833 24.400784,370.68807 11.554839,347.44867 0.49230715,327.43562 -0.19379173,303.02357 2.0295017,280.6648 4.519613,255.62277 12.210315,229.87251 27.272953,208.88845 42.927224,187.0802 66.500166,169.7377 91.542992,157.3998 123.80825,141.50361 158.60347,133.16208 197.45814,130.76045 193.27789,95.210151 197.79736,74.13607 213.99128,51.888442 231.03958,28.466988 261.48079,13.591106 290.81883,5.4618442 328.19648,-4.895078 370.35219,-4.6954834 407.92671,5.0398935 444.75845,14.582813 485.4705,37.535006 505.61285,60.505784 532.58416,45.954389 569.80066,37.248812 603.69205,34.64417 634.82376,32.251615 666.59821,37.042875 696.82063,44.318909 727.04291,51.594914 757.65169,61.26249 783.16213,77.851459 808.16019,94.107283 833.9387,114.0264 845.06247,140.26394 854.3198,162.09903 854.47465,187.08372 845.37863,210.57487 870.61878,210.56763 914.44421,229.42226 940.76858,250.5608 967.12845,271.72792 988.55312,300.93607 996.80165,332.2177 1004.3014,360.65998 1000.5321,392.59443 988.49594,419.68611 980.93146,436.71261 971.72687,450.01123 950.36775,462.28428 978.26768,476.28475 980.38531,506.67062 982.67425,531.95267 985.5364,563.56646 977.82157,598.43575 958.52819,624.3402 940.62439,648.37886 909.88407,662.57114 880.87373,672.95532 853.94539,682.59445 824.07389,686.09707 795.36311,684.23921 765.12823,682.28273 731.58394,672.13527 707.8421,660.86619 691.84298,676.47214 668.01303,688.98183 644.96767,697.36611 618.78367,706.89236 590.14797,710.87308 562.02051,712.06292 531.94727,713.33513 501.47332,710.1418 472.14202,703.9032 z"
       style="fill:url(#seamlesstexture1_light);fill-opacity:1.0;stroke:none"
       sodipodi:nodetypes="aacaaaacaaaacaaacaaaacaaacaaaacaaa" />
  </g>
  <g
     id="small_cloud2_attach"
     transform="translate(2000,-6000)">
    <rect
       style="fill:none;fill-opacity:1;stroke:#000000;stroke-opacity:1;stroke-width:5;stroke-miterlimit:4;stroke-dasharray:none"
       id="small_cloud2_guide"
       width="1000"
       height="1000"
       x="0"
       y="0" />
    <path
       inkscape:connector-curvature="0"
       id="small_cloud2"
       d="M 425.98968,685.00478 C 401.47562,678.41828 378.59329,665.29742 358.414,649.89878 339.02599,635.104 311.94108,614.95423 308.74219,596.17966 290.03923,604.13387 231.6177,609.93733 193.75971,603.48048 167.66543,599.02999 142.53709,587.3582 120.65456,572.46282 101.7778,559.61348 85.492645,542.47655 72.634535,523.60578 60.398987,505.64869 49.809621,485.47702 46.084549,464.06932 41.980053,440.48113 46.259338,408.63542 51.460405,392.44289 30.990991,387.27365 16.41198,356.49295 8.9967777,333.41751 0.08884754,305.69687 0.43905396,273.8496 9.153058,246.06738 16.967272,221.15392 34.777696,199.60152 53.774256,181.68859 77.715328,159.11321 107.09614,141.42245 138.06934,130.31014 166.25074,120.19945 193.87197,116.73346 226.99164,117.638 226.33198,81.750925 245.72927,63.296816 267.15042,46.472852 301.8358,19.231295 350.47057,13.009919 394.50926,10.607417 423.87801,9.0052347 454.52192,13.522267 481.54085,25.144111 504.69571,35.103878 529.06186,47.997956 541.87953,70.721979 560.2748,48.267625 603.27479,21.497501 639.91466,9.704254 677.50938,-2.3963214 718.86292,-2.2652435 758.13862,1.8826774 785.41899,4.7637591 813.50592,10.713102 837.30887,24.348996 858.6966,36.601304 878.86858,53.883141 890.70568,75.503475 900.63338,93.636404 901.12139,113.87928 902.72258,136.3464 919.59471,133.13798 946.63662,145.76129 963.17519,159.64897 979.13002,173.04648 989.92747,193.09985 995.40213,213.20154 1003.3844,242.51068 1003.077,275.18726 994.49718,304.3271 987.82388,326.99202 975.47405,348.27053 956.68093,364.27722 972.69175,376.6002 987.08449,398.60257 992.22343,420.03638 999.89524,452.03412 995.84357,488.13169 982.67775,518.2875 968.29954,551.22025 942.53517,581.51431 911.07255,598.87524 886.02054,612.69879 854.92095,615.02237 826.3872,612.89734 790.64584,610.23552 741.08068,592.54328 724.08244,579.81421 716.28996,598.00616 699.36176,624.53333 679.43309,639.26787 639.27827,668.9566 587.90439,682.68508 538.52983,690.16774 501.40095,695.79455 462.25625,694.74918 425.98968,685.00478 z"
       style="fill:url(#seamlesstexture1_light);fill-opacity:1.0;stroke:none"
       sodipodi:nodetypes="aacaaaacaaaacaaacaaaacaaacaaaacaaa" />
  </g>
  <g
     id="tree_attach"
     transform="translate(6000,-2000)">
    <rect
       style="fill:none;fill-opacity:1;stroke:#000000;stroke-opacity:1;stroke-width:5;stroke-miterlimit:4;stroke-dasharray:none"
       id="tree_guide"
       width="1000"
       height="1000"
       x="0"
       y="0" />
    <g
       id="tree">
      <path
         style="fill:url(#seamlesspaper4);fill-opacity:1;stroke:none;stroke-width:0.95677458999999998px;stroke-linecap:butt;stroke-linejoin:miter;stroke-opacity:1"
         d="M 215.92454,258.36762 C 223.19351,320.27455 237.25783,467.45438 240.3196,575.64662 243.66508,693.8637 246.74672,797.96618 242.52085,859.94719 230.64957,932.08859 171.79039,974.96126 115.67214,1011.6702 101.88168,1024.4249 62.56853,1044.2291 66.13578,1053.6052 102.6723,1055.3553 135.90808,1035.1997 168.78687,1021.3456 190.23704,1014.5024 219.29259,986.0169 231.68762,985.06087 231.78331,1035.805 192.56872,1071.6103 165.5585,1109.0751 148.3966,1145.4051 190.32271,1108.5755 201.36179,1101.1136 238.06608,1073.1117 269.92724,1037.4352 291.01721,995.24578 317.16663,991.71693 306.66684,1037.7957 321.83154,1053.2017 334.47156,1083.5231 355.56344,1110.7326 383.57249,1126.8869 363.01324,1078.5144 357.23453,1025.3141 354.25021,973.02309 386.79627,992.43918 414.39555,1019.7133 448.20529,1037.0888 479.71803,1056.574 512.32583,1074.2041 546.09198,1089.0768 510.41736,1008.4045 415.80447,978.34271 383.32723,895.23439 366.57716,846.86335 363.35095,797.18301 357.65687,746.80935 355.04447,701.4091 352.39529,581.70109 348.8875,484.28949 345.3797,386.87787 360.48606,288.87236 360.15348,243.40707 314.15878,247.5907 261.91924,254.18399 215.92454,258.36762 z"
         id="path2991"
         inkscape:connector-curvature="0"
         sodipodi:nodetypes="cscccccccccccccccscc" />
      <path
         style="fill:url(#bookcover2_dark);fill-opacity:1.0;stroke:#000000;stroke-width:0;stroke-miterlimit:4;stroke-opacity:1;stroke-dasharray:none"
         d="M 337.85069,30.58277 C 302.29577,30.61984 266.32102,40.87614 235.32316,63.58459 177.05846,54.24759 111.78008,64.78761 65.83874,115.28239 43.59316,135.84031 39.09985,176.09371 41.50051,204.51411 8.88197,227.19451 -11.86215,282.34066 7.92655,326.43172 12.80939,354.34897 46.57743,362.64738 47.42606,385.21929 42.31875,432.70112 78.42008,465.37711 109.33358,479.40699 139.73934,493.67789 172.74834,497.69024 204.89086,493.87864 254.94784,526.30457 314.47268,527.65814 368.56735,513.85859 390.71815,510.03073 409.76675,492.636 429.37738,483.0416 475.61984,476.01812 527.01067,445.31321 541.52469,384.2954 543.74523,355.06796 541.45316,331.00132 559.655,309.04392 584.9794,253.92935 568.62,180.52658 529.87866,143.08814 505.29174,119.13808 476.25806,108.32131 456.33781,77.01942 422.4918,44.7915 379.6464,30.6537 337.85069,30.58277 z"
         id="path3773"
         inkscape:connector-curvature="0" />
    </g>
  </g>
  <g
     id="brid1_attach"
     transform="translate(12000,-2000)">
    <rect
       style="fill:none;fill-opacity:1;stroke:#000000;stroke-opacity:1;stroke-width:5;stroke-miterlimit:4;stroke-dasharray:none"
       id="brid1_guide"
       width="1000"
       height="1000"
       x="0"
       y="0" />
    <g
       id="brid1">
      <path
         style="fill:url(#seamlesstexture7);fill-opacity:1.0;stroke:none;stroke-width:0;stroke-linecap:butt;stroke-linejoin:miter;stroke-miterlimit:4;stroke-opacity:1;stroke-dasharray:none"
         d="M 224,476.3675 580,460.3675 852,658.3675 502,678.3675 z"
         id="path3767"
         inkscape:connector-curvature="0"
         sodipodi:nodetypes="ccccc" />
      <path
         style="fill:url(#seamlesspaper2_dark);fill-opacity:1.0;stroke:none;stroke-width:0;stroke-linecap:butt;stroke-linejoin:miter;stroke-miterlimit:4;stroke-opacity:1;stroke-dasharray:none"
         d="M 96,590.3675 250,428.3675 350,516.3675 z"
         id="path2997"
         inkscape:connector-curvature="0"
         sodipodi:nodetypes="cccc" />
      <path
         style="fill:url(#seamlesspaper2_dark);fill-opacity:1.0;stroke:none;stroke-width:0;stroke-linecap:butt;stroke-linejoin:miter;stroke-miterlimit:4;stroke-opacity:1;stroke-dasharray:none"
         d="M 466,554.3675 788,194.3675 716,606.3675 z"
         id="path3771"
         inkscape:connector-curvature="0"
         sodipodi:nodetypes="cccc" />
    </g>
  </g>
  <g
     id="bird2_attach"
     transform="translate(14000,-2000)">
    <rect
       style="fill:none;fill-opacity:1;stroke:#000000;stroke-opacity:1;stroke-width:5;stroke-miterlimit:4;stroke-dasharray:none"
       id="bird2_guide"
       width="1000"
       height="1000"
       x="0"
       y="0" />
    <g
       id="bird2">
      <path
         style="fill:url(#seamlesstexture7);fill-opacity:1.0;stroke:none;stroke-width:0;stroke-linecap:butt;stroke-linejoin:miter;stroke-miterlimit:4;stroke-opacity:1;stroke-dasharray:none"
         d="M 224,476.3675 580,460.3675 852,658.3675 502,678.3675 z"
         id="path3573"
         inkscape:connector-curvature="0"
         sodipodi:nodetypes="ccccc" />
      <path
         style="fill:url(#seamlesspaper2_dark);fill-opacity:1.0;stroke:none;stroke-width:0;stroke-linecap:butt;stroke-linejoin:miter;stroke-miterlimit:4;stroke-opacity:1;stroke-dasharray:none"
         d="M 104,550.3675 250,418.3675 336,516.3675 z"
         id="path3575"
         inkscape:connector-curvature="0"
         sodipodi:nodetypes="cccc" />
      <path
         style="fill:url(#seamlesspaper2_dark);fill-opacity:1.0;stroke:none;stroke-width:0;stroke-linecap:butt;stroke-linejoin:miter;stroke-miterlimit:4;stroke-opacity:1;stroke-dasharray:none"
         d="M 466,554.3675 574,852.3675 716,606.3675 z"
         id="path3577"
         inkscape:connector-curvature="0"
         sodipodi:nodetypes="cccc" />
    </g>
  </g>
  <rect
     style="fill:url(#pattern4133);fill-opacity:1;stroke:none"
     id="rect5617"
     width="50000"
     height="5000"
     x="0"
     y="0" />
  <path
     style="fill:url(#pattern4131);fill-opacity:1;stroke:none"
     d="M 0,5000 0,4432 924,4376 2324,4664 2760,4796 3068,4716 3276,4860 4412,4628 5276,4728 5720,4728 6380,4548 7640,4940 8664.6328,4856 9201.8726,4688.083 9749.6235,4639.2842 10292.518,4766.0959 10948.186,4588.4982 11742.64,4611.6421 50000,4048 50000,5000 z"
     id="path5653"
     inkscape:connector-curvature="0"
     sodipodi:nodetypes="ccccccccccccccccccccc" />
  <use
     transform="translate(369.18046,2580.8319)"
     x="0"
     y="0"
     xlink:href="#big_cloud1"
     id="use4233"
     width="1"
     height="1" />
  <use
     x="0"
     y="0"
     xlink:href="#tree"
     id="use5067"
     transform="matrix(0.99327054,0.11581726,-0.11581726,0.99327054,1094.8433,3441.6909)"
     width="50000"
     height="5000" />
  <use
     x="0"
     y="0"
     xlink:href="#medium_cloud1"
     id="use5448"
     transform="matrix(1.066714,0,0,1.066714,2515.2266,2392.3686)"
     width="50000"
     height="5000" />
  <use
     x="0"
     y="0"
     xlink:href="#small_cloud1"
     id="use5474"
     transform="matrix(0.74151991,0,0,0.74151991,1502.9173,1833.6849)"
     width="50000"
     height="5000" />
  <use
     x="0"
     y="0"
     xlink:href="#brid1"
     id="use5500"
     transform="matrix(0.7455705,0,0,0.7455705,3589.3888,2572.3695)"
     width="50000"
     height="5000" />
  <use
     transform="translate(4162.7682,1873.7946)"
     x="0"
     y="0"
     xlink:href="#big_cloud1"
     id="use4233-1"
     width="1"
     height="1" />
  <use
     x="0"
     y="0"
     xlink:href="#tree"
     id="use5067-1"
     transform="matrix(0.89408598,-0.04863573,0.04863573,0.89408598,2445.0205,3922.0686)"
     width="50000"
     height="5000" />
  <use
     x="0"
     y="0"
     xlink:href="#small_cloud1"
     id="use5474-3"
     transform="matrix(0.59073986,0,0,0.59073986,4893.1725,2802.0106)"
     width="50000"
     height="5000" />
  <use
     x="0"
     y="0"
     xlink:href="#tree"
     id="use5067-5"
     transform="matrix(0.945976,0.02126992,-0.02126992,0.945976,4734.865,3769.9601)"
     width="50000"
     height="5000" />
  <use
     x="0"
     y="0"
     xlink:href="#tree"
     id="use5067-5-2-2"
     transform="matrix(0.98559011,0.05562254,-0.05562254,0.98559011,6440.8969,3674.8022)"
     width="50000"
     height="5000" />
  <use
     x="0"
     y="0"
     xlink:href="#medium_cloud1"
     id="use5448-4"
     transform="matrix(0.9168125,0,0,0.9168125,6259.5755,2108.4436)"
     width="50000"
     height="5000" />
  <use
     x="0"
     y="0"
     xlink:href="#brid1"
     id="use5500-1"
     transform="matrix(0.7455705,0,0,0.7455705,6522.1327,1950.099)"
     width="50000"
     height="5000" />
  <use
     transform="matrix(0.88710842,0,0,0.88710842,7811.0578,2458.8548)"
     x="0"
     y="0"
     xlink:href="#big_cloud1"
     id="use4233-1-9"
     width="1"
     height="1" />
  <use
     x="0"
     y="0"
     xlink:href="#medium_cloud1"
     id="use5448-4-8"
     transform="matrix(0.9168125,0,0,0.9168125,9275.4332,2247.9148)"
     width="50000"
     height="5000" />
</svg>
