<?xml version="1.0" encoding="UTF-8" standalone="no"?>
<!-- Created with Inkscape (http://www.inkscape.org/) -->

<svg
   xmlns:dc="http://purl.org/dc/elements/1.1/"
   xmlns:cc="http://creativecommons.org/ns#"
   xmlns:rdf="http://www.w3.org/1999/02/22-rdf-syntax-ns#"
   xmlns:svg="http://www.w3.org/2000/svg"
   xmlns="http://www.w3.org/2000/svg"
   xmlns:sodipodi="http://sodipodi.sourceforge.net/DTD/sodipodi-0.dtd"
   xmlns:inkscape="http://www.inkscape.org/namespaces/inkscape"
   width="1000"
   height="1000"
   id="svg3009"
   version="1.1"
   inkscape:version="0.48.2 r9819"
   sodipodi:docname="medium_cloud2.svg">
  <defs
     id="defs3011" />
  <sodipodi:namedview
     id="base"
     pagecolor="#ffffff"
     bordercolor="#666666"
     borderopacity="1.0"
     inkscape:pageopacity="0.0"
     inkscape:pageshadow="2"
     inkscape:zoom="0.5"
     inkscape:cx="500"
     inkscape:cy="500"
     inkscape:document-units="px"
     inkscape:current-layer="layer1"
     showgrid="false"
     units="px"
     inkscape:window-width="1920"
     inkscape:window-height="1005"
     inkscape:window-x="-9"
     inkscape:window-y="-9"
     inkscape:window-maximized="1" />
  <metadata
     id="metadata3014">
    <rdf:RDF>
      <cc:Work
         rdf:about="">
        <dc:format>image/svg+xml</dc:format>
        <dc:type
           rdf:resource="http://purl.org/dc/dcmitype/StillImage" />
        <dc:title />
      </cc:Work>
    </rdf:RDF>
  </metadata>
  <g
     inkscape:label="Layer 1"
     inkscape:groupmode="layer"
     id="layer1"
     transform="translate(0,-52.3675)">
    <path
       style="fill:#000000"
       d="M 738.0734,1049.8146 C 699.0678,1047.7225 659.17572,1041.4608 623.36114,1025.8681 597.91632,1014.7903 572.40903,999.71731 555.38201,977.80296 545.34471,964.88452 540.00538,950.52583 537.82951,931.97065 508.19031,948.68402 491.15479,952.81536 466.15999,955.99993 435.83632,959.8633 404.44527,956.53732 374.67851,949.58091 340.66891,941.63297 304.72428,931.99753 277.73269,909.83277 252.76812,889.33253 235.16229,859.42806 224.23082,829.03078 215.50342,804.76247 211.90919,774.41694 216.0773,752.09194 184.50854,749.32273 156.32188,741.30229 133.73221,722.92773 106.21078,700.54165 85.88977,666.64431 78.515914,631.94286 70.305358,593.30399 76.511196,550.05439 93.490066,514.38799 107.07885,485.84292 133.22121,464.12302 158.96064,445.76666 187.9306,425.10643 205.03776,417.62691 255.98482,401.25561 237.34377,360.67844 238.86518,340.48171 246.60501,311.36757 256.79072,273.05299 283.10239,236.85076 316.06324,214.82037 350.2408,191.97673 395.00338,185.94648 436.10767,186.55785 476.0996,187.15267 504.82551,192.88726 552.03398,217.51693 565.7549,167.95173 578.96958,143.32103 607.28603,118.1187 640.60288,88.465893 686.97936,74.363195 730.98765,67.112565 773.90682,60.041396 819.12285,64.535804 861.20948,75.525401 899.20895,85.447757 935.78237,103.20658 967.48887,126.38222 996.29991,147.44146 1018.2485,174.3553 1040.8355,204.37189 1057.9111,187.67107 1089.9101,181.47645 1116.3298,177.67401 1157.5955,171.7349 1201.5874,171.48991 1241.2198,184.42836 1281.3718,197.53647 1324.2402,218.24636 1347.4128,253.55995 1371.1166,289.68313 1372.9475,348.5964 1369.0498,381.35911 1404.0929,391.75094 1429.4887,407.2044 1450.5633,431.04657 1474.5866,458.22463 1493.4805,493.99122 1495.3672,530.21557 1497.6487,574.01968 1479.1491,619.21932 1453.9393,655.11458 1433.3449,684.43804 1413.6186,701.48943 1369.4472,721.5753 1385.2705,751.52548 1389.5782,782.12946 1387.9501,813.26687 1385.8937,852.59559 1375.994,894.30832 1352.629,926.01087 1329.0545,957.99757 1292.4585,981.90339 1254.5224,993.72539 1205.2606,1009.0767 1148.3352,1011.0446 1099.7275,993.73344 1071.0987,983.53741 1045.9021,962.43441 1029.0842,936.09977 1016.7554,960.13664 982.37653,984.47368 953.92922,1001.6869 925.66846,1018.7874 893.69455,1029.9129 861.56846,1037.5947 821.33659,1047.215 779.38007,1052.03 738.0734,1049.8146 z"
       id="path2890"
       inkscape:connector-curvature="0"
       sodipodi:nodetypes="aaacaaaacaaaacaaacaaaacaaacaaacaaaacaaa" />
  </g>
</svg>
