<?xml version="1.0" encoding="UTF-8" standalone="no"?>
<!-- Created with Inkscape (http://www.inkscape.org/) -->

<svg
   xmlns:dc="http://purl.org/dc/elements/1.1/"
   xmlns:cc="http://creativecommons.org/ns#"
   xmlns:rdf="http://www.w3.org/1999/02/22-rdf-syntax-ns#"
   xmlns:svg="http://www.w3.org/2000/svg"
   xmlns="http://www.w3.org/2000/svg"
   xmlns:sodipodi="http://sodipodi.sourceforge.net/DTD/sodipodi-0.dtd"
   xmlns:inkscape="http://www.inkscape.org/namespaces/inkscape"
   width="1000"
   height="1000"
   id="svg3009"
   version="1.1"
   inkscape:version="0.48.2 r9819"
   sodipodi:docname="medium_cloud1.svg">
  <defs
     id="defs3011" />
  <sodipodi:namedview
     id="base"
     pagecolor="#ffffff"
     bordercolor="#666666"
     borderopacity="1.0"
     inkscape:pageopacity="0.0"
     inkscape:pageshadow="2"
     inkscape:zoom="0.5"
     inkscape:cx="500"
     inkscape:cy="500"
     inkscape:document-units="px"
     inkscape:current-layer="layer1"
     showgrid="false"
     units="px"
     inkscape:window-width="1920"
     inkscape:window-height="1005"
     inkscape:window-x="-9"
     inkscape:window-y="-9"
     inkscape:window-maximized="1" />
  <metadata
     id="metadata3014">
    <rdf:RDF>
      <cc:Work
         rdf:about="">
        <dc:format>image/svg+xml</dc:format>
        <dc:type
           rdf:resource="http://purl.org/dc/dcmitype/StillImage" />
        <dc:title />
      </cc:Work>
    </rdf:RDF>
  </metadata>
  <g
     inkscape:label="Layer 1"
     inkscape:groupmode="layer"
     id="layer1"
     transform="translate(0,-52.3675)">
    <path
       style="fill:#000000"
       d="M 896.31662,1047.5767 C 860.09747,1041.504 825.58936,1026.0133 793.29507,1008.5267 769.55674,995.67292 746.60863,980.22942 727.86851,960.79921 716.19378,948.69437 705.09417,936.15399 699.6281,918.99145 674.50136,943.25964 646.45328,962.02936 615.5038,975.62408 572.67017,994.4388 525.78595,1007.1088 479.0184,1008.3373 434.80193,1009.4988 388.66202,1002.8279 348.53222,984.22574 323.75891,972.74183 300.83341,954.70128 285.11578,932.37307 271.1269,912.50067 258.52741,886.69215 260.7102,863.67247 234.03688,875.95553 175.85063,882.65315 135.78534,871.0415 92.819718,858.58929 50.528499,830.65226 26.804171,792.72787 1.722482,752.63369 -7.4779927,699.07408 2.755982,652.90156 10.632405,617.36559 37.688413,587.24367 65.00213,563.18532 99.716088,532.60873 130.78904,511.19666 188.09974,499.10053 185.9381,449.43853 197.79057,404.68187 220.12093,364.22908 244.26674,320.48747 280.86794,280.50059 325.07303,257.21413 381.51742,227.48023 449.89772,219.76749 513.55596,223.97491 563.37154,227.2674 609.68455,240.76604 656.34631,269.17234 666.78343,213.2033 699.41656,160.756 742.29619,124.66847 789.09854,85.279554 852.95551,66.188928 913.72253,59.166354 980.15139,51.489474 1050.5297,61.0472 1112.5136,86.141307 1170.6247,109.66745 1228.3337,146.05976 1263.9871,197.62724 1277.2688,216.83723 1282.8726,233.86748 1282.9143,265.08539 1307.5494,249.80107 1388.5025,239.00205 1442.4218,238.04442 1512.0979,236.80696 1586.8631,235.41849 1649.653,265.64633 1704.0337,291.82586 1757.2731,335.23062 1780.2783,391.02836 1798.7815,435.90688 1793.8159,498.54003 1776.8192,536.61714 1830.2549,539.80248 1873.7105,560.13057 1903.2085,596.17014 1931.0664,630.20606 1942.4424,680.98987 1934.7476,724.29461 1928.2033,761.12445 1901.3832,794.16777 1872.0265,817.35078 1841.6682,841.32478 1809.7512,857.36738 1763.381,858.13794 1762.0491,900.00676 1745.8617,939.28749 1719.8394,969.46184 1694.0793,999.33205 1655.0868,1017.4286 1617.1686,1028.2926 1568.4734,1042.2445 1515.5028,1040.8758 1465.3133,1034.0277 1428.3553,1028.9849 1389.2425,1021.4291 1358.7103,1000.0018 1326.6998,977.53737 1299.2999,938.59279 1287.1592,907.02637 1274.672,931.37206 1232.2308,973.01283 1196.0785,994.63693 1150.9538,1021.6278 1097.7705,1034.1233 1045.9574,1043.0757 996.78322,1051.5722 945.53244,1055.8286 896.31662,1047.5767 z"
       id="path2890"
       inkscape:connector-curvature="0"
       sodipodi:nodetypes="aaacaaaacaaaacaaacaaaacaaacaaacaaaacaaa" />
  </g>
</svg>
