<?xml version="1.0" encoding="UTF-8" standalone="no"?>
<!-- Created with Inkscape (http://www.inkscape.org/) -->

<svg
   xmlns:dc="http://purl.org/dc/elements/1.1/"
   xmlns:cc="http://creativecommons.org/ns#"
   xmlns:rdf="http://www.w3.org/1999/02/22-rdf-syntax-ns#"
   xmlns:svg="http://www.w3.org/2000/svg"
   xmlns="http://www.w3.org/2000/svg"
   xmlns:sodipodi="http://sodipodi.sourceforge.net/DTD/sodipodi-0.dtd"
   xmlns:inkscape="http://www.inkscape.org/namespaces/inkscape"
   width="1000"
   height="1000"
   id="svg3009"
   version="1.1"
   inkscape:version="0.48.2 r9819"
   sodipodi:docname="medium_cloud3.svg">
  <defs
     id="defs3011" />
  <sodipodi:namedview
     id="base"
     pagecolor="#ffffff"
     bordercolor="#666666"
     borderopacity="1.0"
     inkscape:pageopacity="0.0"
     inkscape:pageshadow="2"
     inkscape:zoom="0.5"
     inkscape:cx="500"
     inkscape:cy="500"
     inkscape:document-units="px"
     inkscape:current-layer="layer1"
     showgrid="false"
     units="px"
     inkscape:window-width="1920"
     inkscape:window-height="1005"
     inkscape:window-x="-9"
     inkscape:window-y="-9"
     inkscape:window-maximized="1" />
  <metadata
     id="metadata3014">
    <rdf:RDF>
      <cc:Work
         rdf:about="">
        <dc:format>image/svg+xml</dc:format>
        <dc:type
           rdf:resource="http://purl.org/dc/dcmitype/StillImage" />
        <dc:title />
      </cc:Work>
    </rdf:RDF>
  </metadata>
  <g
     inkscape:label="Layer 1"
     inkscape:groupmode="layer"
     id="layer1"
     transform="translate(0,-52.3675)">
    <path
       style="fill:#000000"
       d="M 965.25553,1053.138 C 924.03928,1050.1728 882.75583,1040.9527 844.37609,1025.6371 817.34725,1014.8511 790.12242,1001.4064 769.30111,981.07531 753.49105,965.63689 740.97756,946.21254 734.11664,924.89076 709.82626,948.35113 681.73361,964.46277 652.79251,979.63819 616.58757,998.62266 579.10113,1018.8091 538.60116,1024.3721 489.02606,1031.1813 436.92032,1024.5009 389.23502,1009.3298 346.05052,995.59029 300.89931,976.30859 270.96287,942.28688 242.96233,910.46524 227.03719,862.04121 222.84,824.58384 179.21479,820.84826 153.04196,810.97215 124.37312,791.56812 93.718284,770.81992 68.241008,740.42956 52.469084,706.94142 33.613135,666.90512 28.065454,620.46872 29.221355,576.22936 30.335423,533.59116 38.074302,489.20892 58.176008,451.59003 76.800104,416.73637 95.013476,392.41201 139.26667,365.10874 119.33724,319.32975 116.46624,286.28896 125.62263,248.10646 137.36131,199.15569 167.3365,150.24574 209.24152,122.35399 256.32273,91.017029 319.49244,85.372211 375.84073,90.221206 427.24073,94.644382 477.68941,110.91333 520.56798,145.06403 565.41349,117.98814 618.39417,102.92946 670.55596,96.798902 724.10197,90.505603 778.96815,98.624977 831.81614,109.296 868.04285,116.61087 904.81981,126.15629 937.02142,144.29293 967.34377,161.37111 997.28042,182.95187 1016.5538,211.92846 1031.7781,234.8174 1039.2707,258.11224 1041.5409,290.52098 1087.6556,275.74544 1130.7868,272.45298 1175.6693,275.52992 1232.9214,279.45489 1290.9725,292.67022 1342.5529,317.82284 1381.1179,336.62859 1421.6736,360.20745 1444.3005,396.66197 1459.1434,420.57557 1463.9421,444.57518 1461.0263,479.42542 1507.5702,467.03026 1554.6116,464.29013 1598.8183,476.78697 1651.2212,491.60081 1706.4007,519.48321 1736.346,564.96712 1760.9308,602.30879 1770.0612,654.18342 1758.2216,697.2952 1747.495,736.35361 1716.512,768.50563 1679.9522,790.24391 1700.6937,831.50751 1707.0531,861.13832 1698.069,895.63229 1689.2749,929.39688 1661.5526,958.07031 1632.2653,977.03457 1596.8804,999.94723 1552.1122,1007.5589 1509.9944,1009.3385 1463.8378,1011.2885 1414.4277,1006.7744 1373.4903,985.36506 1343.5305,969.6968 1316.9811,942.26282 1302.0908,913.32396 1281.0994,948.00916 1248.4135,976.1777 1214.0419,998.01828 1179.1039,1020.2192 1138.4581,1033.3204 1098.0891,1042.4794 1054.77,1052.3081 1009.5612,1056.3254 965.25553,1053.138 z"
       id="path2890"
       inkscape:connector-curvature="0"
       sodipodi:nodetypes="aaacaaaacaaaacaaacaaaacaaacaaacaaaacaaa" />
  </g>
</svg>
