<?xml version="1.0" encoding="UTF-8" standalone="no"?>
<!-- Created with Inkscape (http://www.inkscape.org/) -->

<svg
   xmlns:dc="http://purl.org/dc/elements/1.1/"
   xmlns:cc="http://creativecommons.org/ns#"
   xmlns:rdf="http://www.w3.org/1999/02/22-rdf-syntax-ns#"
   xmlns:svg="http://www.w3.org/2000/svg"
   xmlns="http://www.w3.org/2000/svg"
   xmlns:sodipodi="http://sodipodi.sourceforge.net/DTD/sodipodi-0.dtd"
   xmlns:inkscape="http://www.inkscape.org/namespaces/inkscape"
   width="1000"
   height="1000"
   id="svg3009"
   version="1.1"
   inkscape:version="0.48.2 r9819"
   sodipodi:docname="small_cloud2.svg">
  <defs
     id="defs3011" />
  <sodipodi:namedview
     id="base"
     pagecolor="#ffffff"
     bordercolor="#666666"
     borderopacity="1.0"
     inkscape:pageopacity="0.0"
     inkscape:pageshadow="2"
     inkscape:zoom="0.5"
     inkscape:cx="500"
     inkscape:cy="500"
     inkscape:document-units="px"
     inkscape:current-layer="layer1"
     showgrid="false"
     units="px"
     inkscape:window-width="1920"
     inkscape:window-height="1005"
     inkscape:window-x="-9"
     inkscape:window-y="-9"
     inkscape:window-maximized="1" />
  <metadata
     id="metadata3014">
    <rdf:RDF>
      <cc:Work
         rdf:about="">
        <dc:format>image/svg+xml</dc:format>
        <dc:type
           rdf:resource="http://purl.org/dc/dcmitype/StillImage" />
        <dc:title />
      </cc:Work>
    </rdf:RDF>
  </metadata>
  <g
     inkscape:label="Layer 1"
     inkscape:groupmode="layer"
     id="layer1"
     transform="translate(0,-52.3675)">
    <path
       style="fill:#000000"
       d="M 609.00512,1041.2959 C 573.89792,1031.8632 541.12757,1013.0725 512.2283,991.01972 484.46225,969.83174 445.67327,940.97475 441.09207,914.08722 414.30709,925.47865 330.64016,933.78993 276.42278,924.54292 239.05252,918.16926 203.0656,901.45379 171.72707,880.12175 144.6932,861.71989 121.37082,837.17766 102.9564,810.15236 85.433567,784.43557 70.268271,755.54721 64.933503,724.88871 59.055352,691.10748 65.183823,645.50044 72.6324,622.31071 43.317642,614.90772 22.438676,570.82591 11.81918,537.77899 -0.93808901,498.07957 -0.43654966,452.4703 12.042993,412.6827 23.233924,377.00351 48.740676,346.13777 75.946124,320.48423 110.23273,288.15346 152.30972,262.81808 196.66722,246.90386 237.02651,232.42409 276.58356,227.46036 324.01506,228.75577 323.07034,177.361 350.84969,150.93241 381.52745,126.83839 431.20125,87.825077 500.85232,78.91529 563.92122,75.474607 605.98094,73.180081 649.86685,79.649035 688.56134,96.292969 721.72199,110.5566 756.61736,129.02253 774.97386,161.56617 801.31819,129.40873 862.89955,91.070567 915.37242,74.181164 969.21276,56.851628 1028.4362,57.039348 1084.6839,62.979689 1123.7528,67.105758 1163.9768,75.625961 1198.0656,95.154265 1228.6955,112.7011 1257.5843,137.45085 1274.5365,168.41387 1288.7542,194.38249 1289.4531,223.37282 1291.7462,255.54854 1315.9092,250.95369 1354.6366,269.03184 1378.3219,288.92074 1401.1712,308.10764 1416.6345,336.82657 1424.4749,365.61471 1435.9065,407.58906 1435.4662,454.386 1423.1789,496.11789 1413.6219,528.57689 1395.9354,559.05038 1369.0213,581.97395 1391.9508,599.622 1412.563,631.13214 1419.9226,661.82804 1430.9096,707.6528 1425.1071,759.34903 1406.252,802.53592 1385.6606,849.69973 1348.7628,893.08462 1303.7044,917.94764 1267.8268,937.74469 1223.2883,941.07234 1182.4244,938.02903 1131.2383,934.21697 1060.2548,908.87947 1035.9112,890.64986 1024.7514,916.703 1000.5081,954.69323 971.96775,975.79493 914.46103,1018.3129 840.88722,1037.9738 770.17668,1048.6899 717.00348,1056.7482 660.94338,1055.2511 609.00512,1041.2959 z"
       id="path2890"
       inkscape:connector-curvature="0"
       sodipodi:nodetypes="aacaaaacaaaacaaacaaaacaaacaaaacaaa" />
  </g>
</svg>
