<?xml version="1.0" encoding="UTF-8" standalone="no"?>
<!-- Created with Inkscape (http://www.inkscape.org/) -->

<svg
   xmlns:dc="http://purl.org/dc/elements/1.1/"
   xmlns:cc="http://creativecommons.org/ns#"
   xmlns:rdf="http://www.w3.org/1999/02/22-rdf-syntax-ns#"
   xmlns:svg="http://www.w3.org/2000/svg"
   xmlns="http://www.w3.org/2000/svg"
   xmlns:sodipodi="http://sodipodi.sourceforge.net/DTD/sodipodi-0.dtd"
   xmlns:inkscape="http://www.inkscape.org/namespaces/inkscape"
   width="1000"
   height="1000"
   id="svg3009"
   version="1.1"
   inkscape:version="0.48.2 r9819"
   sodipodi:docname="small_cloud1.svg">
  <defs
     id="defs3011" />
  <sodipodi:namedview
     id="base"
     pagecolor="#ffffff"
     bordercolor="#666666"
     borderopacity="1.0"
     inkscape:pageopacity="0.0"
     inkscape:pageshadow="2"
     inkscape:zoom="0.5"
     inkscape:cx="500"
     inkscape:cy="500"
     inkscape:document-units="px"
     inkscape:current-layer="layer1"
     showgrid="false"
     units="px"
     inkscape:window-width="1920"
     inkscape:window-height="1005"
     inkscape:window-x="-9"
     inkscape:window-y="-9"
     inkscape:window-maximized="1" />
  <metadata
     id="metadata3014">
    <rdf:RDF>
      <cc:Work
         rdf:about="">
        <dc:format>image/svg+xml</dc:format>
        <dc:type
           rdf:resource="http://purl.org/dc/dcmitype/StillImage" />
        <dc:title />
      </cc:Work>
    </rdf:RDF>
  </metadata>
  <g
     inkscape:label="Layer 1"
     inkscape:groupmode="layer"
     id="layer1"
     transform="translate(0,-52.3675)">
    <path
       style="fill:#000000"
       d="M 659.37565,1038.5507 C 616.9024,1029.5169 572.06298,1020.1881 536.7971,996.61249 512.10933,980.10841 486.81928,950.31086 479.94109,930.59698 450.23678,942.21892 401.06687,943.40097 361.72975,939.70503 313.96622,935.21735 265.19036,924.23226 223.5897,902.18112 182.45993,880.37955 144.49599,849.60384 120.20557,812.08498 99.317157,779.82087 91.000107,740.74941 88.498598,703.26663 86.536697,673.86946 91.378739,639.42342 101.83044,615.76444 64.235989,597.29698 33.696519,572.91177 15.745437,540.43675 0.28651811,512.47026 -0.67224495,478.35656 2.4346127,447.11214 5.9143251,412.1181 16.661407,376.13436 37.710123,346.81098 59.585595,316.33586 92.526716,292.10124 127.52187,274.86011 172.60974,252.64657 221.23301,240.99002 275.52901,237.63395 269.68748,187.95552 276.00304,158.50634 298.63262,127.41723 322.45612,94.6878 364.99505,73.900059 405.99239,62.540128 458.22438,48.067237 517.13329,48.346153 569.64039,61.950489 621.10952,75.285883 678.00103,107.35956 706.14821,139.45921 743.83825,119.12491 795.84504,106.95963 843.20529,103.31987 886.70913,99.976485 931.11113,106.67185 973.34432,116.83947 1015.5773,127.00705 1058.3504,140.51664 1093.999,163.69827 1128.9316,186.41436 1164.9548,214.24958 1180.4993,250.91424 1193.4356,281.42687 1193.652,316.34078 1180.9411,349.16761 1216.212,349.15748 1277.4542,375.50518 1314.2402,405.04443 1351.0758,434.62363 1381.0149,475.43946 1392.5415,519.1528 1403.0218,558.89839 1397.7545,603.52399 1380.935,641.38224 1370.3643,665.17528 1357.5017,683.75893 1327.6542,700.90945 1366.6419,720.47387 1369.6011,762.93546 1372.7997,798.26491 1376.7993,842.44241 1366.0185,891.16919 1339.0577,927.36839 1314.0387,960.96031 1271.0818,980.79277 1230.5424,995.30376 1192.9124,1008.7736 1151.1696,1013.6682 1111.0488,1011.072 1068.7982,1008.338 1021.923,994.15781 988.74585,978.41026 966.38849,1000.2182 933.08822,1017.6994 900.88435,1029.4157 864.29451,1042.7278 824.27862,1048.2905 784.97297,1049.9532 742.94825,1051.731 700.36358,1047.2686 659.37565,1038.5507 z"
       id="path2890"
       inkscape:connector-curvature="0"
       sodipodi:nodetypes="aacaaaacaaaacaaacaaaacaaacaaaacaaa" />
  </g>
</svg>
