<?xml version="1.0" encoding="UTF-8" standalone="no"?>
<!-- Created with Inkscape (http://www.inkscape.org/) -->

<svg
   xmlns:dc="http://purl.org/dc/elements/1.1/"
   xmlns:cc="http://creativecommons.org/ns#"
   xmlns:rdf="http://www.w3.org/1999/02/22-rdf-syntax-ns#"
   xmlns:svg="http://www.w3.org/2000/svg"
   xmlns="http://www.w3.org/2000/svg"
   xmlns:sodipodi="http://sodipodi.sourceforge.net/DTD/sodipodi-0.dtd"
   xmlns:inkscape="http://www.inkscape.org/namespaces/inkscape"
   width="1000"
   height="1000"
   id="svg2"
   version="1.1"
   inkscape:version="0.48.2 r9819"
   sodipodi:docname="tree_tall.svg">
  <defs
     id="defs4" />
  <sodipodi:namedview
     id="base"
     pagecolor="#ffffff"
     bordercolor="#666666"
     borderopacity="1.0"
     inkscape:pageopacity="0.0"
     inkscape:pageshadow="2"
     inkscape:zoom="0.24748737"
     inkscape:cx="115.71429"
     inkscape:cy="703.64092"
     inkscape:document-units="px"
     inkscape:current-layer="layer1"
     showgrid="false"
     inkscape:window-width="1920"
     inkscape:window-height="1005"
     inkscape:window-x="-9"
     inkscape:window-y="-9"
     inkscape:window-maximized="1" />
  <metadata
     id="metadata7">
    <rdf:RDF>
      <cc:Work
         rdf:about="">
        <dc:format>image/svg+xml</dc:format>
        <dc:type
           rdf:resource="http://purl.org/dc/dcmitype/StillImage" />
        <dc:title></dc:title>
      </cc:Work>
    </rdf:RDF>
  </metadata>
  <g
     inkscape:label="Layer 1"
     inkscape:groupmode="layer"
     id="layer1"
     transform="translate(0,-52.362183)">
    <path
       style="fill:#8b481a;fill-opacity:1;stroke:#000000;stroke-width:0.67043167px;stroke-linecap:butt;stroke-linejoin:miter;stroke-opacity:1"
       d="M 192.60233,398.90291 C 197.42958,444.67516 206.76955,553.49584 208.80283,633.49019 211.02453,720.8966 213.07101,797.8671 210.26466,843.69414 202.38107,897.03348 163.29331,928.73235 126.02576,955.8739 116.86766,965.30435 90.760215,979.94708 93.129189,986.87952 117.39271,988.1735 139.46424,973.27096 161.2987,963.02764 175.54352,957.96798 194.83902,936.90659 203.07043,936.19971 203.13398,973.71849 177.09198,1000.192 159.15477,1027.8924 147.75773,1054.7537 175.60042,1027.5231 182.93136,1022.006 207.3063,1001.3022 228.46496,974.92385 242.4706,943.73016 259.83615,941.12101 252.86335,975.19039 262.93408,986.58111 271.32818,1008.9999 285.33508,1029.118 303.93559,1041.062 290.28241,1005.2967 286.44484,965.96182 284.46297,927.29932 306.07646,941.65503 324.40486,961.82076 346.85756,974.66773 367.78484,989.0745 389.43934,1002.1098 411.86309,1013.1061 388.17196,953.45935 325.34051,931.2325 303.77272,869.78451 292.64916,834.02031 290.50668,797.28805 286.7253,760.04316 284.99044,726.47547 283.23113,637.96668 280.90166,565.94326 278.57215,493.91981 288.60413,421.45726 288.38327,387.8415 257.83867,390.93475 223.14693,395.80965 192.60233,398.90291 z"
       id="path2991"
       inkscape:connector-curvature="0"
       sodipodi:nodetypes="cscccccccccccccccscc" />
    <path
       style="fill:#008000;fill-opacity:1;stroke:#000000;stroke-width:0;stroke-miterlimit:4;stroke-opacity:1;stroke-dasharray:none"
       d="M 277.40508,46.100616 C 249.77616,46.129426 221.82099,54.099367 197.73324,71.745587 152.45706,64.490017 101.73071,72.680437 66.030728,111.9188 48.744196,127.89388 45.252538,159.1739 47.118037,181.25876 21.770912,198.88318 5.6511179,241.73601 21.028476,275.99818 24.82282,297.69205 51.063197,304.14056 51.722657,321.68068 47.75388,358.57775 75.807404,383.96953 99.82959,394.87182 123.45722,405.96142 149.10777,409.07933 174.08499,406.11742 212.98314,431.31488 259.23855,432.36672 301.2743,421.64339 318.4872,418.66884 333.28943,405.15179 348.52842,397.69621 384.46239,392.23841 424.39705,368.37832 435.67556,320.96275 437.4011,298.25077 435.61998,279.54911 449.76422,262.48652 469.44322,219.65823 456.73072,162.61858 426.62569,133.52602 407.51975,114.91496 384.95833,106.5095 369.47876,82.185499 343.17779,57.141907 309.88359,46.155736 277.40508,46.100616 z"
       id="path3773"
       inkscape:connector-curvature="0" />
  </g>
</svg>
