<?xml version="1.0" encoding="UTF-8" standalone="no"?>
<!-- Created with Inkscape (http://www.inkscape.org/) -->

<svg
   xmlns:dc="http://purl.org/dc/elements/1.1/"
   xmlns:cc="http://creativecommons.org/ns#"
   xmlns:rdf="http://www.w3.org/1999/02/22-rdf-syntax-ns#"
   xmlns:svg="http://www.w3.org/2000/svg"
   xmlns="http://www.w3.org/2000/svg"
   xmlns:sodipodi="http://sodipodi.sourceforge.net/DTD/sodipodi-0.dtd"
   xmlns:inkscape="http://www.inkscape.org/namespaces/inkscape"
   width="1000"
   height="1000"
   id="svg3009"
   version="1.1"
   inkscape:version="0.48.2 r9819"
   sodipodi:docname="tree_frame1.svg">
  <defs
     id="defs3011" />
  <sodipodi:namedview
     id="base"
     pagecolor="#ffffff"
     bordercolor="#666666"
     borderopacity="1.0"
     inkscape:pageopacity="0.0"
     inkscape:pageshadow="2"
     inkscape:zoom="0.5"
     inkscape:cx="500"
     inkscape:cy="500"
     inkscape:document-units="px"
     inkscape:current-layer="layer1"
     showgrid="false"
     units="px"
     inkscape:window-width="1920"
     inkscape:window-height="1005"
     inkscape:window-x="-9"
     inkscape:window-y="-9"
     inkscape:window-maximized="1" />
  <metadata
     id="metadata3014">
    <rdf:RDF>
      <cc:Work
         rdf:about="">
        <dc:format>image/svg+xml</dc:format>
        <dc:type
           rdf:resource="http://purl.org/dc/dcmitype/StillImage" />
        <dc:title></dc:title>
      </cc:Work>
    </rdf:RDF>
  </metadata>
  <g
     inkscape:label="Layer 1"
     inkscape:groupmode="layer"
     id="layer1"
     transform="translate(0,-52.3675)">
    <path
       style="fill:#8b481a;fill-opacity:1;stroke:#000000;stroke-width:0.95677459px;stroke-linecap:butt;stroke-linejoin:miter;stroke-opacity:1"
       d="M 337.4375 242.5 C 292.03857 246.77171 246.73905 252.01116 201.375 256.625 C 208.58562 350.61553 217.9095 444.42408 226.62326 538.28169 C 232.61159 609.5821 238.51864 680.91049 242.15266 752.37607 C 243.7052 788.89867 244.88978 825.57118 242.00952 862.04973 C 235.8367 900.63876 212.58253 934.41086 184.24373 960.40319 C 161.53953 981.69072 134.97374 998.14275 109.91591 1016.3953 C 95.458851 1027.6456 77.965737 1035.4265 66.3125 1049.9688 C 64.924802 1052.5057 67.807639 1054.9006 70.189812 1053.6562 C 99.633307 1053.7293 126.6803 1040.4117 152.82976 1028.4017 C 169.0519 1021.354 185.82812 1014.8468 199.79398 1003.7094 C 209.58236 996.90894 219.22579 988.98856 230.625 985.3125 C 233.19654 986.9457 230.7684 990.52779 231.36697 993.00049 C 229.0802 1021.9524 213.31054 1047.5822 195.95901 1070.0326 C 185.25684 1084.3768 172.60639 1097.4444 163.85468 1113.1306 C 162.3491 1116.446 159.91756 1121.5329 163.27407 1124.3843 C 169.98897 1125.3601 174.87817 1119.4877 180.30056 1116.5561 C 215.3392 1092.3726 247.66 1063.4207 271.65457 1028.0034 C 278.83403 1017.5325 285.31965 1006.5892 291.03125 995.25 C 300.18254 993.16219 307.88874 1001.9667 308.94866 1010.404 C 313.01083 1025.1153 312.43195 1041.7648 322.15834 1054.3805 C 335.03228 1083.7147 355.48206 1110.7001 383.5625 1126.875 C 363.0558 1078.3018 357.1754 1025.2165 354.25 973.03125 C 388.83767 994.22259 418.63395 1022.6649 454.93655 1041.1539 C 484.27504 1059.0141 514.66567 1075.1876 546.09375 1089.0625 C 530.08188 1052.72 500.41223 1025.0257 470.91938 999.4819 C 441.20065 973.68064 410.09766 947.52781 391.21886 912.29187 C 376.455 884.17552 371.5655 852.3765 366.05823 821.47414 C 361.53706 792.61906 357.67387 763.64771 354.45684 734.6229 C 347.41206 644.50504 339.46115 554.44893 333.70252 464.23701 C 330.60369 397.9974 338.00661 331.92135 344.66873 266.12518 C 345.39951 257.99208 346.03786 249.84902 346.34375 241.6875 C 343.375 241.95833 340.40625 242.22917 337.4375 242.5 z "
       id="path2991"
       inkscape:connector-curvature="0"
       sodipodi:nodetypes="cscccccccccccccccscc" />
    <path
       style="fill:#008000;fill-opacity:1;stroke:#000000;stroke-width:0;stroke-miterlimit:4;stroke-opacity:1;stroke-dasharray:none"
       d="M 266.4375 34.28125 C 230.88816 34.911542 195.46353 46.259928 166.625 67.15625 C 124.75046 58.02943 78.249316 67.17816 45.12928 95.059076 C 21.631671 114.00519 4.8312363 142.1476 2.7269426 172.58414 C 1.4630675 183.48388 1.070625 194.46993 1.1875 205.4375 C -20.944674 229.51147 -30.568304 263.49291 -27.121179 295.75012 C -24.929612 320.30282 -14.83539 344.66414 3.4781346 361.55715 C 11.728579 370.04742 18.427244 380.94729 18.46875 393.125 C 20.742726 412.06399 28.124861 430.47653 40.576684 445.03453 C 65.206621 476.04665 104.5722 493.00533 143.65797 494.65225 C 153.76239 495.36087 164.12579 494.52218 174.04661 496.54011 C 190.10005 503.7475 205.75269 512.58986 223.31248 515.59583 C 268.05696 526.38062 316.5577 523.65768 358.92171 505.1779 C 375.29638 496.05452 390.3088 482.92796 409.47681 480.2151 C 428.84776 475.8078 448.03459 468.73404 463.60778 456.0737 C 485.96255 439.34147 503.45356 413.88086 505.23001 385.4336 C 505.87888 366.3011 499.30683 346.43223 506.59381 327.89986 C 513.49667 312.47305 525.41544 298.65429 526.48982 281.13294 C 534.20554 233.34039 515.36735 182.67404 479.3517 150.55771 C 465.62877 137.76687 449.40345 128.15851 433.0885 119.10508 C 414.58168 107.69744 398.21446 92.951316 384.59335 76.04546 C 359.10873 51.820124 324.40303 39.813636 290.0625 35.40625 C 282.22046 34.546703 274.3253 34.178821 266.4375 34.28125 z "
       id="path3773"
       inkscape:connector-curvature="0" />
  </g>
</svg>
